<svg width="66" height="68" viewBox="0 0 66 68" fill="none" xmlns="http://www.w3.org/2000/svg">
<ellipse cx="42.7484" cy="45.3466" rx="22.475" ry="22.6534" fill="#FFA412" fill-opacity="0.29"/>
<path d="M44.7847 14.7492L32.7354 12.9974L27.3421 2.08002C27.0323 1.4554 26.5542 0.929728 25.9617 0.562225C25.3692 0.194722 24.6858 0 23.9886 0C23.2914 0 22.608 0.194722 22.0155 0.562225C21.423 0.929728 20.9449 1.4554 20.6351 2.08002L15.2453 13.002L3.19597 14.7538C2.50679 14.8552 1.8596 15.1469 1.32734 15.5963C0.795072 16.0457 0.398883 16.6347 0.183415 17.2972C-0.0320536 17.9596 -0.0582369 18.669 0.107815 19.3455C0.273868 20.022 0.625555 20.6387 1.12325 21.1261L9.84512 29.6267L7.78282 41.632C7.66571 42.3194 7.74312 43.0259 8.00634 43.6717C8.26955 44.3175 8.70807 44.8768 9.27237 45.2865C9.83668 45.6962 10.5043 45.9399 11.1998 45.9903C11.8954 46.0406 12.5911 45.8954 13.2085 45.5712L23.9892 39.9045L34.7641 45.5712C35.3815 45.8949 36.0771 46.0397 36.7725 45.9892C37.4678 45.9387 38.1352 45.6949 38.6993 45.2853C39.2635 44.8757 39.702 44.3166 39.9653 43.6711C40.2287 43.0256 40.3064 42.3193 40.1897 41.632L38.1367 29.6278L46.8574 21.1272C47.3568 20.6401 47.71 20.023 47.877 19.3456C48.0441 18.6683 48.0183 17.9577 47.8027 17.2942C47.5871 16.6307 47.1902 16.0408 46.6569 15.5911C46.1236 15.1413 45.4751 14.8497 44.7847 14.7492ZM45.24 19.4681L36.0872 28.3893C35.9526 28.5203 35.8519 28.6821 35.7938 28.8608C35.7357 29.0394 35.7218 29.2295 35.7535 29.4146L37.9154 42.0189C37.9608 42.2806 37.9319 42.5498 37.8321 42.7959C37.7323 43.042 37.5655 43.2552 37.3507 43.4114C37.1359 43.5676 36.8817 43.6605 36.6168 43.6796C36.3519 43.6986 36.0869 43.6431 35.852 43.5193L24.5326 37.5676C24.3662 37.4802 24.1812 37.4344 23.9932 37.4344C23.8053 37.4344 23.6202 37.4802 23.4539 37.5676L12.1345 43.5193C11.8999 43.6442 11.6349 43.7007 11.3697 43.6824C11.1046 43.6642 10.8499 43.5719 10.6345 43.4161C10.4192 43.2603 10.2519 43.0471 10.1517 42.801C10.0515 42.5548 10.0223 42.2855 10.0676 42.0236L12.2283 29.4227C12.2601 29.2377 12.2465 29.0477 12.1886 28.869C12.1307 28.6904 12.0302 28.5286 11.8958 28.3974L2.74296 19.4762C2.55058 19.2914 2.41408 19.0562 2.34908 18.7975C2.28407 18.5387 2.29318 18.2669 2.37536 18.0131C2.45755 17.7593 2.60949 17.5338 2.81381 17.3623C3.01813 17.1907 3.2666 17.0802 3.5308 17.0432L16.1861 15.2045C16.372 15.1775 16.5485 15.1057 16.7005 14.9953C16.8525 14.8849 16.9754 14.7392 17.0585 14.5708L22.7182 3.10074C22.8357 2.86305 23.0173 2.66295 23.2425 2.52304C23.4677 2.38313 23.7275 2.30899 23.9927 2.30899C24.2578 2.30899 24.5176 2.38313 24.7428 2.52304C24.968 2.66295 25.1496 2.86305 25.2671 3.10074L30.9268 14.5708C31.0101 14.7394 31.1331 14.8852 31.2853 14.9956C31.4375 15.106 31.6143 15.1777 31.8004 15.2045L44.4545 17.0432C44.7166 17.0821 44.9626 17.1934 45.1649 17.3646C45.3671 17.5358 45.5175 17.76 45.5992 18.0121C45.6809 18.2642 45.6905 18.534 45.627 18.7913C45.5636 19.0485 45.4295 19.283 45.24 19.4681Z" fill="#FDBF00"/>
<path d="M23.9892 14.8535C21.9498 14.8535 19.9562 15.4583 18.2605 16.5913C16.5647 17.7243 15.2431 19.3348 14.4627 21.2189C13.6822 23.1031 13.478 25.1764 13.8759 27.1766C14.2737 29.1769 15.2558 31.0142 16.6979 32.4563C18.14 33.8983 19.9773 34.8804 21.9775 35.2783C23.9778 35.6762 26.051 35.472 27.9352 34.6915C29.8194 33.9111 31.4298 32.5894 32.5628 30.8937C33.6959 29.198 34.3006 27.2044 34.3006 25.165C34.2976 22.4311 33.2102 19.8102 31.2771 17.8771C29.344 15.9439 26.723 14.8566 23.9892 14.8535ZM19.3548 31.6635C19.7624 30.8144 20.3967 30.0945 21.1878 29.5833C21.9788 29.0721 22.8958 28.7896 23.8374 28.767C23.8872 28.767 23.9347 28.7821 23.9857 28.7821C24.0367 28.7821 24.0854 28.7682 24.1363 28.767C25.0786 28.7887 25.9964 29.0708 26.7882 29.5821C27.58 30.0933 28.2148 30.8137 28.6224 31.6635C27.272 32.634 25.651 33.1561 23.988 33.1561C22.3251 33.1561 20.7041 32.634 19.3537 31.6635H19.3548ZM21.9188 24.4003C21.9169 23.9975 22.0328 23.603 22.2521 23.2651C22.4715 22.9273 22.7848 22.6609 23.1535 22.4988C23.5221 22.3366 23.9302 22.2857 24.3274 22.3523C24.7247 22.4189 25.0938 22.6001 25.3895 22.8736C25.6851 23.1472 25.8944 23.5012 25.9916 23.892C26.0887 24.2829 26.0696 24.6937 25.9365 25.0739C25.8033 25.454 25.5621 25.787 25.2422 26.0318C24.9224 26.2767 24.538 26.4228 24.1363 26.4522C24.037 26.4417 23.9368 26.4417 23.8374 26.4522C23.3176 26.4156 22.8309 26.1837 22.475 25.8031C22.1191 25.4225 21.9204 24.9214 21.9188 24.4003ZM30.3348 30.0021C29.6103 28.8086 28.5627 27.8445 27.3132 27.2215C27.9909 26.4374 28.3657 25.4367 28.3698 24.4003C28.3754 23.692 28.2093 22.9929 27.8856 22.3628C27.562 21.7327 27.0905 21.1904 26.5116 20.7823C25.9326 20.3742 25.2633 20.1125 24.5611 20.0196C23.8589 19.9266 23.1446 20.0052 22.4794 20.2486C21.8142 20.492 21.2179 20.8929 20.7415 21.4171C20.2651 21.9413 19.9228 22.5732 19.7439 23.2585C19.565 23.9439 19.5548 24.6624 19.7143 25.3526C19.8737 26.0428 20.198 26.684 20.6594 27.2215C19.4131 27.8456 18.3687 28.8096 17.6471 30.0021C16.7398 28.8181 16.1819 27.4038 16.0365 25.9193C15.891 24.4348 16.1638 22.9392 16.824 21.6016C17.4842 20.264 18.5055 19.1378 19.7723 18.3503C21.0391 17.5629 22.501 17.1455 23.9927 17.1455C25.4843 17.1455 26.9462 17.5629 28.213 18.3503C29.4799 19.1378 30.5011 20.264 31.1613 21.6016C31.8215 22.9392 32.0943 24.4348 31.9488 25.9193C31.8034 27.4038 31.2455 28.8181 30.3383 30.0021H30.3348Z" fill="#FDBF00"/>
</svg>
