<svg width="53" height="52" viewBox="0 0 53 52" fill="none" xmlns="http://www.w3.org/2000/svg">
<ellipse cx="34.1987" cy="33.8773" rx="17.98" ry="18.1227" fill="#E5FFC4"/>
<path d="M41.8669 14.6566L35.1456 4.57468C35.0689 4.45964 34.9649 4.36533 34.843 4.30012C34.721 4.2349 34.5849 4.20078 34.4466 4.2008H25.2048V2.52048C25.2048 1.85201 24.9393 1.21091 24.4666 0.738232C23.9939 0.26555 23.3528 0 22.6843 0H2.52048C1.85201 0 1.21091 0.26555 0.738232 0.738232C0.26555 1.21091 0 1.85201 0 2.52048V24.3647C0 25.0331 0.26555 25.6742 0.738232 26.1469C1.21091 26.6196 1.85201 26.8851 2.52048 26.8851H5.12498C5.31781 27.8348 5.83301 28.6885 6.58328 29.3018C7.33356 29.915 8.27277 30.25 9.24177 30.25C10.2108 30.25 11.15 29.915 11.9003 29.3018C12.6505 28.6885 13.1657 27.8348 13.3586 26.8851H28.6495C28.8423 27.8348 29.3575 28.6885 30.1078 29.3018C30.8581 29.915 31.7973 30.25 32.7663 30.25C33.7353 30.25 34.6745 29.915 35.4248 29.3018C36.175 28.6885 36.6902 27.8348 36.8831 26.8851H39.4876C40.156 26.8851 40.7971 26.6196 41.2698 26.1469C41.7425 25.6742 42.008 25.0331 42.008 24.3647V15.1229C42.0078 14.957 41.9587 14.7948 41.8669 14.6566ZM9.24177 28.5655C8.74326 28.5655 8.25596 28.4176 7.84146 28.1407C7.42697 27.8637 7.10392 27.4701 6.91315 27.0095C6.72238 26.549 6.67246 26.0422 6.76972 25.5533C6.86697 25.0643 7.10702 24.6152 7.45952 24.2627C7.81201 23.9102 8.26112 23.6702 8.75005 23.5729C9.23897 23.4757 9.74576 23.5256 10.2063 23.7164C10.6669 23.9071 11.0605 24.2302 11.3375 24.6447C11.6144 25.0592 11.7623 25.5465 11.7623 26.045C11.7623 26.7135 11.4967 27.3546 11.024 27.8272C10.5513 28.2999 9.91024 28.5655 9.24177 28.5655ZM23.5245 25.2048H13.3586C13.1657 24.2552 12.6505 23.4014 11.9003 22.7882C11.15 22.175 10.2108 21.84 9.24177 21.84C8.27277 21.84 7.33356 22.175 6.58328 22.7882C5.83301 23.4014 5.31781 24.2552 5.12498 25.2048H2.52048C2.29766 25.2048 2.08396 25.1163 1.9264 24.9587C1.76884 24.8012 1.68032 24.5875 1.68032 24.3647V2.52048C1.68032 2.29766 1.76884 2.08396 1.9264 1.9264C2.08396 1.76884 2.29766 1.68032 2.52048 1.68032H22.6843C22.9072 1.68032 23.1209 1.76884 23.2784 1.9264C23.436 2.08396 23.5245 2.29766 23.5245 2.52048V25.2048ZM32.7663 28.5655C32.2678 28.5655 31.7805 28.4176 31.366 28.1407C30.9515 27.8637 30.6284 27.4701 30.4377 27.0095C30.2469 26.549 30.197 26.0422 30.2942 25.5533C30.3915 25.0643 30.6315 24.6152 30.984 24.2627C31.3365 23.9102 31.7856 23.6702 32.2746 23.5729C32.7635 23.4757 33.2703 23.5256 33.7308 23.7164C34.1914 23.9071 34.585 24.2302 34.862 24.6447C35.1389 25.0592 35.2868 25.5465 35.2868 26.045C35.2868 26.7135 35.0212 27.3546 34.5485 27.8272C34.0758 28.2999 33.4347 28.5655 32.7663 28.5655ZM40.3277 24.3647C40.3277 24.5875 40.2392 24.8012 40.0816 24.9587C39.9241 25.1163 39.7104 25.2048 39.4876 25.2048H36.8831C36.6902 24.2552 36.175 23.4014 35.4248 22.7882C34.6745 22.175 33.7353 21.84 32.7663 21.84C31.7973 21.84 30.8581 22.175 30.1078 22.7882C29.3575 23.4014 28.8423 24.2552 28.6495 25.2048H25.2048V5.88113H33.9971L35.6774 8.40161H30.2458C30.023 8.40161 29.8093 8.49012 29.6517 8.64769C29.4941 8.80525 29.4056 9.01894 29.4056 9.24177V17.6434C29.4056 17.8662 29.4941 18.0799 29.6517 18.2375C29.8093 18.395 30.023 18.4835 30.2458 18.4835H40.3277V24.3647ZM40.3277 16.8032H31.086V10.0819H36.799L40.3277 15.3749V16.8032Z" fill="black"/>
<path d="M9.24153 26.8852C9.70554 26.8852 10.0817 26.509 10.0817 26.045C10.0817 25.581 9.70554 25.2048 9.24153 25.2048C8.77752 25.2048 8.40137 25.581 8.40137 26.045C8.40137 26.509 8.77752 26.8852 9.24153 26.8852Z" fill="black"/>
<path d="M32.7659 26.8852C33.23 26.8852 33.6061 26.509 33.6061 26.045C33.6061 25.581 33.23 25.2048 32.7659 25.2048C32.3019 25.2048 31.9258 25.581 31.9258 26.045C31.9258 26.509 32.3019 26.8852 32.7659 26.8852Z" fill="black"/>
</svg>
