<svg width="53" height="52" viewBox="0 0 53 52" fill="none" xmlns="http://www.w3.org/2000/svg">
<ellipse cx="34.1987" cy="33.8773" rx="17.98" ry="18.1227" fill="#FFE79C"/>
<path d="M34.0577 37.2259H30.8896V7.12837H31.6816C32.3118 7.12837 32.9162 6.87803 33.3618 6.43242C33.8074 5.98681 34.0577 5.38243 34.0577 4.75224V2.37612C34.0577 1.74594 33.8074 1.14156 33.3618 0.69595C32.9162 0.250341 32.3118 0 31.6816 0H3.16816C2.53798 0 1.9336 0.250341 1.48799 0.69595C1.04238 1.14156 0.792041 1.74594 0.792041 2.37612V4.75224C0.792041 5.38243 1.04238 5.98681 1.48799 6.43242C1.9336 6.87803 2.53798 7.12837 3.16816 7.12837H3.9602V37.2259H0.792041C0.581978 37.2259 0.38052 37.3094 0.231983 37.4579C0.0834469 37.6064 0 37.8079 0 38.018C0 38.228 0.0834469 38.4295 0.231983 38.578C0.38052 38.7266 0.581978 38.81 0.792041 38.81H34.0577C34.2678 38.81 34.4693 38.7266 34.6178 38.578C34.7663 38.4295 34.8498 38.228 34.8498 38.018C34.8498 37.8079 34.7663 37.6064 34.6178 37.4579C34.4693 37.3094 34.2678 37.2259 34.0577 37.2259ZM2.37612 4.75224V2.37612C2.37612 2.16606 2.45957 1.9646 2.60811 1.81607C2.75664 1.66753 2.9581 1.58408 3.16816 1.58408H31.6816C31.8917 1.58408 32.0931 1.66753 32.2417 1.81607C32.3902 1.9646 32.4737 2.16606 32.4737 2.37612V4.75224C32.4737 4.96231 32.3902 5.16377 32.2417 5.3123C32.0931 5.46084 31.8917 5.54429 31.6816 5.54429H3.16816C2.9581 5.54429 2.75664 5.46084 2.60811 5.3123C2.45957 5.16377 2.37612 4.96231 2.37612 4.75224V4.75224ZM5.54428 37.2259V7.12837H29.3055V37.2259H5.54428Z" fill="black"/>
<path d="M26.1369 9.50455H8.71196C8.5019 9.50455 8.30044 9.58799 8.15191 9.73653C8.00337 9.88507 7.91992 10.0865 7.91992 10.2966V17.425C7.91992 17.635 8.00337 17.8365 8.15191 17.985C8.30044 18.1335 8.5019 18.217 8.71196 18.217H26.1369C26.3469 18.217 26.5484 18.1335 26.6969 17.985C26.8455 17.8365 26.9289 17.635 26.9289 17.425V10.2966C26.9289 10.0865 26.8455 9.88507 26.6969 9.73653C26.5484 9.58799 26.3469 9.50455 26.1369 9.50455ZM25.3448 16.6329H9.504V11.0886H25.3448V16.6329Z" fill="black"/>
<path d="M17.8993 22.3356C17.7622 22.2327 17.5954 22.1772 17.4241 22.1772C17.2527 22.1772 17.0859 22.2327 16.9488 22.3356C16.8063 22.4385 13.4639 24.9889 13.4639 28.5135C13.4639 29.5638 13.8811 30.5711 14.6238 31.3138C15.3665 32.0564 16.3738 32.4737 17.4241 32.4737C18.4744 32.4737 19.4817 32.0564 20.2244 31.3138C20.967 30.5711 21.3843 29.5638 21.3843 28.5135C21.3843 24.9889 18.0419 22.4385 17.8993 22.3356ZM17.4241 30.8896C16.7939 30.8896 16.1895 30.6393 15.7439 30.1936C15.2983 29.748 15.0479 29.1437 15.0479 28.5135C15.0479 26.4859 16.632 24.7671 17.4241 24.0147C18.2161 24.8067 19.8002 26.4859 19.8002 28.5135C19.8002 29.1437 19.5499 29.748 19.1042 30.1936C18.6586 30.6393 18.0543 30.8896 17.4241 30.8896Z" fill="black"/>
</svg>
