<svg width="49" height="56" viewBox="0 0 49 56" fill="none" xmlns="http://www.w3.org/2000/svg">
<ellipse cx="30.1987" cy="37.8773" rx="17.98" ry="18.1227" fill="#EBDBF5"/>
<path d="M15.0004 20.8462C6.7286 20.8462 0 27.5756 0 35.8474C0 44.1176 6.7286 50.847 15.0004 50.847C23.2722 50.847 30 44.1176 30 35.8474C30 27.5756 23.2722 20.8462 15.0004 20.8462ZM15.0004 49.5242C7.45801 49.5242 1.32359 43.3882 1.32359 35.8474C1.32359 28.3058 7.45883 22.1698 15.0004 22.1698C22.5412 22.1698 28.6772 28.3058 28.6772 35.8474C28.6781 43.3882 22.542 49.5242 15.0004 49.5242Z" fill="black"/>
<path d="M15.0012 29.4418H18.5343C18.899 29.4418 19.1965 29.1459 19.1965 28.7804C19.1965 28.4149 18.8998 28.1182 18.5343 28.1182H15.6625V24.8113C15.6625 24.4458 15.3667 24.1499 15.0012 24.1499C14.6356 24.1499 14.3398 24.4449 14.3398 24.8113V28.1715C12.34 28.4903 10.8066 30.2261 10.8066 32.3144C10.8066 34.6272 12.6884 36.5081 15.0012 36.5081C16.5846 36.5081 17.8721 37.7964 17.8721 39.3798C17.8721 40.9632 16.5846 42.2515 15.0012 42.2515H11.468C11.1025 42.2515 10.8066 42.5482 10.8066 42.9137C10.8066 43.2793 11.1025 43.5751 11.468 43.5751H14.3398V46.8829C14.3398 47.2484 14.6356 47.5443 15.0012 47.5443C15.3667 47.5443 15.6625 47.2492 15.6625 46.8829V43.5218C17.6623 43.203 19.1965 41.4672 19.1965 39.3798C19.1965 37.067 17.314 35.1853 15.002 35.1853C13.4178 35.1853 12.1302 33.8978 12.1302 32.3144C12.1294 30.731 13.4178 29.4418 15.0012 29.4418Z" fill="black"/>
<path d="M23.2403 35.1853C22.874 35.1853 22.5781 35.4804 22.5781 35.8475C22.5781 36.2122 22.8732 36.5089 23.2403 36.5089H24.259C24.6237 36.5089 24.9204 36.213 24.9204 35.8475C24.9204 35.4812 24.6246 35.1853 24.259 35.1853H23.2403Z" fill="black"/>
<path d="M6.761 35.1853H5.74147C5.37594 35.1853 5.08008 35.4804 5.08008 35.8475C5.08008 36.2122 5.37594 36.5089 5.74147 36.5089H6.761C7.12571 36.5089 7.42238 36.213 7.42238 35.8475C7.42156 35.4804 7.12571 35.1853 6.761 35.1853Z" fill="black"/>
<path d="M15.6626 16.2676V4.27003C15.6626 3.90533 15.3668 3.60864 15.0012 3.60864C14.6357 3.60864 14.3398 3.90451 14.3398 4.27003V16.2676C14.3398 16.6323 14.6357 16.9281 15.0012 16.9281C15.3668 16.9281 15.6626 16.6323 15.6626 16.2676Z" fill="black"/>
<path d="M12.1294 17.6378V0.661378C12.1294 0.295854 11.8336 0 11.468 0C11.1025 0 10.8066 0.295854 10.8066 0.661378V17.6378C10.8066 18.0033 11.1025 18.3 11.468 18.3C11.8336 18.3 12.1294 18.0033 12.1294 17.6378Z" fill="black"/>
<path d="M8.59702 19.3524V4.27085C8.59702 3.90532 8.30116 3.60864 7.93564 3.60864C7.57012 3.60864 7.27344 3.9045 7.27344 4.27085V19.3524C7.27344 19.7179 7.5693 20.0138 7.93564 20.0138C8.30035 20.013 8.59702 19.7179 8.59702 19.3524Z" fill="black"/>
<path d="M5.06496 20.1136V8.72584C5.06496 8.36032 4.76909 8.06445 4.40357 8.06445C4.03804 8.06445 3.74219 8.36032 3.74219 8.72584V20.1136C3.74219 20.4792 4.03804 20.7758 4.40357 20.7758C4.76909 20.7758 5.06496 20.48 5.06496 20.1136Z" fill="black"/>
<path d="M1.53175 23.4181V5.98439C1.53175 5.61886 1.2359 5.323 0.870375 5.323C0.504851 5.323 0.208984 5.61886 0.208984 5.98439V23.4181C0.208984 23.7828 0.504851 24.0803 0.870375 24.0803C1.2359 24.0803 1.53175 23.7828 1.53175 23.4181Z" fill="black"/>
<path d="M29.7923 23.4181V5.98439C29.7923 5.61886 29.4956 5.323 29.1301 5.323C28.7646 5.323 28.4688 5.61886 28.4688 5.98439V23.4181C28.4688 23.7828 28.7646 24.0803 29.1301 24.0803C29.4956 24.0803 29.7923 23.7828 29.7923 23.4181Z" fill="black"/>
<path d="M26.2603 20.1136V8.72584C26.2603 8.36032 25.9644 8.06445 25.5981 8.06445C25.2334 8.06445 24.9375 8.36032 24.9375 8.72584V20.1136C24.9375 20.4792 25.2325 20.7758 25.5981 20.7758C25.9636 20.7758 26.2603 20.48 26.2603 20.1136Z" fill="black"/>
<path d="M22.7279 19.3524V4.27085C22.7279 3.90532 22.4312 3.60864 22.0657 3.60864C21.7002 3.60864 21.4043 3.9045 21.4043 4.27085V19.3524C21.4043 19.7179 21.6993 20.0138 22.0657 20.0138C22.4312 20.013 22.7279 19.7179 22.7279 19.3524Z" fill="black"/>
<path d="M19.1947 17.6378V0.661378C19.1947 0.295854 18.8988 0 18.5333 0C18.1678 0 17.8711 0.295854 17.8711 0.661378V17.6378C17.8711 18.0033 18.1669 18.3 18.5333 18.3C18.8988 18.3 19.1947 18.0033 19.1947 17.6378Z" fill="black"/>
</svg>
