<svg width="54" height="50" viewBox="0 0 54 50" fill="none" xmlns="http://www.w3.org/2000/svg">
<ellipse cx="35.1987" cy="31.8773" rx="17.98" ry="18.1227" fill="#FFE79C"/>
<path d="M38.1861 14.6271H2.39548C1.94647 14.6271 1.58203 14.9915 1.58203 15.4406V34.9627C1.58203 37.2044 3.40575 39.0297 5.64911 39.0297H34.9323C37.1757 39.0297 38.9994 37.2044 38.9994 34.9627V15.4406C38.9994 14.9915 38.6351 14.6271 38.1861 14.6271ZM37.3726 34.9626C37.3726 36.308 36.2778 37.4029 34.9324 37.4029H5.64919C4.30376 37.4029 3.20892 36.308 3.20892 34.9626V16.2539H37.3726V34.9626Z" fill="black"/>
<path d="M38.9733 7.09964L37.5889 1.84659C37.27 0.569492 35.9653 -0.232517 34.672 0.0603152L1.89757 7.8366C1.25334 7.98301 0.708327 8.37506 0.361809 8.938C0.0152918 9.50086 -0.0871993 10.1646 0.0754595 10.8088L1.60795 16.8672C1.69907 17.2348 2.03095 17.4805 2.39531 17.4805C2.46036 17.4805 2.52709 17.474 2.59702 17.4561C3.03138 17.3471 3.29493 16.9046 3.18428 16.4687L3.09483 16.1157L38.3664 8.10182C38.5812 8.05142 38.7682 7.91797 38.8821 7.7293C38.9977 7.54056 39.0286 7.31278 38.9733 7.09964ZM2.69638 14.5376L1.65195 10.4135C1.59826 10.1988 1.63403 9.97755 1.74796 9.78881C1.86349 9.60175 2.04567 9.47158 2.26689 9.41949L35.0412 1.64489C35.0998 1.63024 35.16 1.62376 35.2185 1.62376C35.583 1.62376 35.9197 1.87427 36.0125 2.25007L37.1854 6.69951L2.69638 14.5376Z" fill="black"/>
<path d="M9.26651 14.7117C8.86303 14.5148 8.37825 14.6742 8.17327 15.0761L4.91956 21.5835C4.71946 21.9853 4.88212 22.4733 5.284 22.6751C5.40273 22.7337 5.52642 22.7613 5.64844 22.7613C5.94615 22.7613 6.2341 22.597 6.37724 22.3107L9.63095 15.8034C9.83105 15.4014 9.66832 14.9134 9.26651 14.7117Z" fill="black"/>
<path d="M17.3997 14.7117C16.9979 14.5148 16.5098 14.6742 16.308 15.0761L13.0543 21.5835C12.8542 21.9853 13.0169 22.4733 13.4188 22.6751C13.5375 22.7337 13.6612 22.7613 13.7832 22.7613C14.0809 22.7613 14.3689 22.597 14.5104 22.3107L17.7641 15.8034C17.9641 15.4014 17.8015 14.9134 17.3997 14.7117Z" fill="black"/>
<path d="M25.5344 14.7117C25.1342 14.5148 24.6462 14.6742 24.4428 15.0761L21.1891 21.5835C20.989 21.9853 21.1516 22.4733 21.5535 22.6751C21.6723 22.7337 21.796 22.7613 21.918 22.7613C22.2157 22.7613 22.5036 22.597 22.6452 22.3107L25.8989 15.8034C26.099 15.4014 25.9362 14.9134 25.5344 14.7117Z" fill="black"/>
<path d="M33.6692 14.7117C33.2657 14.5148 32.7809 14.6742 32.5776 15.0761L29.3239 21.5835C29.1238 21.9853 29.2864 22.4733 29.6883 22.6751C29.807 22.7337 29.9307 22.7613 30.0527 22.7613C30.3504 22.7613 30.6384 22.597 30.7799 22.3107L34.0336 15.8034C34.2337 15.4014 34.071 14.9134 33.6692 14.7117Z" fill="black"/>
<path d="M38.1861 21.1344H2.39548C1.94647 21.1344 1.58203 21.4989 1.58203 21.9479C1.58203 22.3969 1.94647 22.7613 2.39548 22.7613H38.1861C38.6367 22.7613 38.9995 22.3969 38.9995 21.9479C38.9995 21.4989 38.6351 21.1344 38.1861 21.1344Z" fill="black"/>
<path d="M10.2605 13.2069L4.65766 7.60401C4.34043 7.28678 3.82469 7.28678 3.50746 7.60401C3.19022 7.92125 3.19022 8.43698 3.50746 8.75422L9.1103 14.3587C9.26976 14.5164 9.47794 14.5962 9.68621 14.5962C9.89447 14.5962 10.1027 14.5165 10.2605 14.3571C10.5777 14.0398 10.5777 13.5241 10.2605 13.2069Z" fill="black"/>
<path d="M18.2204 11.3994L12.6127 5.79652C12.2955 5.47929 11.7798 5.47929 11.4625 5.79652C11.1453 6.11375 11.1453 6.62949 11.4625 6.94672L17.0687 12.5496C17.2281 12.7073 17.4363 12.7871 17.6446 12.7871C17.8528 12.7871 18.061 12.7074 18.2205 12.5496C18.5377 12.2323 18.5377 11.7166 18.2204 11.3994Z" fill="black"/>
<path d="M26.1716 9.59198L20.5737 3.98753C20.2564 3.67029 19.7407 3.67029 19.4235 3.98753C19.1062 4.30476 19.1062 4.8205 19.4235 5.13773L25.0214 10.7422C25.1809 10.9 25.3891 10.9797 25.5973 10.9797C25.8056 10.9797 26.0138 10.9016 26.1716 10.7422C26.4889 10.4249 26.4889 9.90921 26.1716 9.59198Z" fill="black"/>
<path d="M34.1206 7.78619L28.5209 2.18174C28.2037 1.86451 27.688 1.86451 27.3707 2.18174C27.0535 2.49898 27.0535 3.01471 27.3707 3.33195L32.9703 8.93639C33.1298 9.09417 33.3379 9.17394 33.5462 9.17394C33.7545 9.17394 33.9627 9.09425 34.1205 8.93639C34.4378 8.61916 34.4378 8.10343 34.1206 7.78619Z" fill="black"/>
</svg>
