<svg width="50" height="56" viewBox="0 0 50 56" fill="none" xmlns="http://www.w3.org/2000/svg">
<ellipse cx="31.7113" cy="37.3029" rx="17.7074" ry="17.8479" fill="#ADFFE2"/>
<path d="M10.206 17.8613C10.206 17.3912 9.82559 17.0107 9.35545 17.0107C8.88531 17.0107 8.50488 17.3912 8.50488 17.8613C8.50488 20.0948 10.9685 23.1614 11.2492 23.5044C11.4179 23.7088 11.662 23.8151 11.9079 23.8151C12.0973 23.8151 12.2883 23.752 12.4469 23.6224C12.8099 23.3242 12.8622 22.7885 12.5648 22.4246C11.6529 21.3133 10.206 19.0922 10.206 17.8613Z" fill="black"/>
<path d="M28.0679 17.0107C27.5978 17.0107 27.2173 17.3912 27.2173 17.8613C27.2173 19.0881 25.7704 21.3117 24.8584 22.4255C24.5611 22.7885 24.6142 23.3242 24.9773 23.6224C25.1351 23.752 25.3261 23.8151 25.5163 23.8151C25.7621 23.8151 26.0055 23.7088 26.1741 23.5044C26.4549 23.1614 28.9185 20.0949 28.9185 17.8613C28.9185 17.3912 28.538 17.0107 28.0679 17.0107Z" fill="black"/>
<path d="M18.7119 17.0107C18.2418 17.0107 17.8613 17.3912 17.8613 17.8613V22.9645C17.8613 23.4347 18.2418 23.8151 18.7119 23.8151C19.182 23.8151 19.5625 23.4347 19.5625 22.9645V17.8613C19.5624 17.3912 19.182 17.0107 18.7119 17.0107Z" fill="black"/>
<path d="M28.0678 3.40219C27.5524 3.40219 27.0138 3.47037 26.4544 3.57427C24.5811 1.39055 21.8081 0 18.7119 0C15.6158 0 12.8426 1.39055 10.9694 3.57419C10.41 3.47037 9.87135 3.40211 9.356 3.40211C4.19702 3.40219 0 7.59921 0 12.7581C0 16.2931 1.99345 19.5068 5.12318 21.0957L5.10659 33.9493C5.1058 34.8771 5.46621 35.7493 6.12158 36.4054C6.77775 37.0625 7.64905 37.4238 8.57688 37.4238H28.8503C30.764 37.4238 32.3206 35.8672 32.3206 33.9535V21.0833C35.4387 19.4902 37.4238 16.2815 37.4238 12.7581C37.4238 7.59921 33.2267 3.40219 28.0678 3.40219ZM30.6195 33.9536C30.6195 34.9287 29.8254 35.7228 28.8502 35.7228H8.5768C8.10419 35.7228 7.65981 35.5384 7.32507 35.2037C6.99113 34.869 6.80677 34.4246 6.80757 33.9512L6.81203 30.6195H30.6195V33.9536ZM31.1461 19.7593C31.1012 19.7775 31.0588 19.7992 31.019 19.8249C30.9118 19.8913 30.8238 19.9794 30.7581 20.0807C30.6917 20.1812 30.6468 20.2975 30.6286 20.4221C30.6211 20.4694 30.6186 20.5168 30.6194 20.565V28.9183H6.81419L6.82511 20.5765C6.82591 20.53 6.82344 20.4827 6.81682 20.437C6.79856 20.3082 6.75119 20.1886 6.68222 20.0848C6.61739 19.9876 6.53271 19.9029 6.42969 19.8381C6.38735 19.8115 6.34246 19.7882 6.29597 19.7691C3.50433 18.5483 1.70105 15.7989 1.70105 12.7581C1.70105 8.53693 5.13482 5.10325 9.35592 5.10325C9.5209 5.10325 9.69505 5.12318 9.86593 5.13666C9.00539 6.63223 8.50535 8.36047 8.50535 10.2065C8.50535 10.6766 8.88578 11.0571 9.35592 11.0571C9.82606 11.0571 10.2065 10.6766 10.2065 10.2065C10.2065 5.51685 14.0223 1.70106 18.7119 1.70106C23.4016 1.70106 27.2173 5.51685 27.2173 10.2065C27.2173 10.6766 27.5977 11.0571 28.0678 11.0571C28.538 11.0571 28.9184 10.6766 28.9184 10.2065C28.9184 8.36047 28.4184 6.63231 27.5578 5.13666C27.7287 5.12318 27.9029 5.10325 28.0678 5.10325C32.289 5.10325 35.7227 8.53701 35.7227 12.7581C35.7227 15.7882 33.9269 18.5341 31.1461 19.7593Z" fill="black"/>
</svg>
