<svg width="52" height="52" viewBox="0 0 52 52" fill="none" xmlns="http://www.w3.org/2000/svg">
<ellipse cx="33.1987" cy="33.8773" rx="17.98" ry="18.1227" fill="#E5FFC3"/>
<path d="M0.0838045 3.48317L2.61619 7.91457C2.70161 8.06432 2.84458 8.17266 3.01177 8.21458L5.37436 8.80523L13.4775 16.9084L14.3729 16.0133L6.14287 7.78358C6.06188 7.70233 5.96031 7.64477 5.84911 7.61691L3.57898 7.04736L1.42291 3.27222L3.27142 1.42372L7.04811 3.58187L7.61793 5.852C7.64553 5.96346 7.70334 6.06529 7.78434 6.14628L16.0143 14.3763L16.9094 13.4809L8.80625 5.37777L8.2156 3.01648C8.17367 2.84903 8.06534 2.7058 7.91559 2.62012L3.48392 0.087995C3.23678 -0.0526349 2.92583 -0.0109668 2.72426 0.189822L0.192142 2.7222C-0.0115114 2.92247 -0.0557838 3.23394 0.0838045 3.48317V3.48317Z" fill="black"/>
<path d="M26.4037 12.4767L12.4764 26.4043L11.5811 25.509L25.5086 11.5817L26.4037 12.4767Z" fill="black"/>
<path d="M10.0383 26.897C9.92368 26.7064 9.71794 26.59 9.49554 26.59H5.69723C5.47508 26.59 5.26909 26.7064 5.15476 26.897L3.25547 30.0622C3.13489 30.2628 3.13489 30.5135 3.25547 30.7143L5.15476 33.8795C5.26909 34.0699 5.47508 34.1866 5.69723 34.1866H9.49554C9.71794 34.1866 9.92368 34.0699 10.0383 33.8795L11.9373 30.7143C12.0579 30.5135 12.0579 30.2628 11.9373 30.0622L10.0383 26.897ZM9.13745 32.9204H6.05557L4.53625 30.3883L6.05557 27.8559H9.13745L10.6568 30.3883L9.13745 32.9204Z" fill="black"/>
<path d="M30.387 15.1948C34.5682 15.2089 37.9693 11.8306 37.9834 7.64947C37.9855 7.01299 37.9073 6.37912 37.7508 5.76217C37.6664 5.42283 37.3229 5.21632 36.9836 5.30069C36.8721 5.32856 36.7706 5.38611 36.6893 5.46711L32.7486 9.40527L29.6219 8.3633L28.5791 5.23741L32.5199 1.29586C32.767 1.04846 32.7668 0.647665 32.5194 0.40052C32.4379 0.319007 32.3353 0.261193 32.223 0.233587C28.1682 -0.793272 24.049 1.66124 23.0222 5.71581C22.8662 6.33094 22.7883 6.96325 22.7904 7.59791C22.792 8.09637 22.8433 8.59326 22.9443 9.0813L9.08001 22.9453C8.59197 22.8445 8.09508 22.7932 7.59688 22.7914C3.40116 22.7914 0 26.1926 0 30.3883C0 34.5838 3.40116 37.9849 7.59688 37.9849C11.7923 37.9849 15.1935 34.5838 15.1935 30.3883C15.1919 29.8898 15.1404 29.393 15.0396 28.9049L18.3587 25.5858L19.8103 27.0374C20.0577 27.2845 20.4583 27.2845 20.7057 27.0374L21.0221 26.7207C21.2997 26.4449 21.7484 26.4449 22.026 26.7207C22.3034 26.9973 22.3039 27.4463 22.0273 27.7236C22.0271 27.7239 22.0266 27.7244 22.026 27.7249L21.7096 28.0413C21.4625 28.2885 21.4625 28.6893 21.7096 28.9364L29.2615 36.4883C31.2477 38.4928 34.4827 38.5073 36.4872 36.5211C38.4915 34.5348 38.5061 31.2995 36.5198 29.2953C36.5091 29.2844 36.4982 29.2734 36.4872 29.2625L28.9354 21.7109C28.6883 21.4638 28.2875 21.4638 28.0403 21.7109L27.7239 22.0273C27.446 22.3034 26.9976 22.3034 26.7197 22.0273C26.4426 21.7508 26.4418 21.3018 26.7184 21.0247C26.7189 21.0242 26.7194 21.0239 26.7197 21.0234L27.0364 20.7067C27.2835 20.4596 27.2835 20.0588 27.0364 19.8116L25.5848 18.36L28.9039 15.0409C29.3919 15.1417 29.8888 15.1932 30.387 15.1948V15.1948ZM32.8743 36.719C32.4144 36.7182 31.9584 36.6351 31.5279 36.4734L36.4721 31.529C37.2182 33.5137 36.2143 35.7273 34.2296 36.4734C33.7965 36.6362 33.3374 36.7195 32.8743 36.719ZM25.7025 20.2655C25.0014 21.1018 25.1113 22.3482 25.9475 23.049C26.6825 23.6649 27.7536 23.6644 28.4877 23.0472L35.5921 30.1578C35.6692 30.2352 35.7414 30.3167 35.8112 30.3995L30.3985 35.8122C30.3154 35.7427 30.2339 35.6705 30.1565 35.5932L23.0467 28.4828C23.7477 27.6465 23.6378 26.4001 22.8016 25.6993C22.0667 25.0832 20.9953 25.0839 20.2611 25.7009L19.2483 24.6881L24.6894 19.2551L25.7025 20.2655ZM28.2588 13.8984L13.8976 28.2567C13.7401 28.414 13.6768 28.6424 13.7304 28.8583C14.599 32.2691 12.5379 35.7382 9.12689 36.6065C5.71609 37.475 2.24695 35.414 1.37843 32.0029C0.510174 28.5921 2.57118 25.123 5.98224 24.2545C7.01405 23.992 8.09508 23.992 9.12689 24.2545C9.34278 24.3074 9.57065 24.2441 9.72847 24.0876L24.0863 9.72898C24.2436 9.57168 24.3069 9.34328 24.2527 9.12765C23.3902 5.7567 25.4236 2.32481 28.7945 1.46202C29.4315 1.29925 30.0904 1.23675 30.7467 1.27763L27.4072 4.61838C27.2377 4.78765 27.1783 5.03844 27.2541 5.2658L28.52 9.06437C28.5833 9.25318 28.7317 9.40162 28.9208 9.46438L32.7194 10.7306C32.9465 10.8064 33.1973 10.7472 33.3668 10.578L36.7063 7.23852C36.7138 7.35936 36.7177 7.4789 36.7177 7.59791C36.7354 11.0764 33.9301 13.9106 30.4516 13.9286C29.9138 13.9312 29.3779 13.8651 28.857 13.7317C28.6411 13.6778 28.4127 13.7408 28.2554 13.8981H28.2588V13.8984Z" fill="black"/>
<path d="M32.7346 31.8396L31.8392 32.735L25.5088 26.4046L26.4039 25.5092L32.7346 31.8396Z" fill="black"/>
</svg>
