<svg width="51" height="51" viewBox="0 0 51 51" fill="none" xmlns="http://www.w3.org/2000/svg">
<ellipse cx="32.1987" cy="32.6013" rx="17.98" ry="18.1227" fill="#FFE79C"/>
<path d="M5.70849 19.8627C5.29948 19.8627 4.96484 20.1973 4.96484 20.6063C4.96484 21.0153 5.29948 21.35 5.70849 21.35C6.11749 21.35 6.45213 21.0153 6.45213 20.6063C6.45213 20.1973 6.11749 19.8627 5.70849 19.8627Z" fill="black"/>
<path d="M36.1089 22.4357L29.1112 24.8376C29.141 24.6666 29.1633 24.4881 29.1633 24.3097C29.1633 22.6736 27.8322 21.3425 26.1962 21.3425H21.3922C21.2658 21.3425 21.1394 21.3128 21.0279 21.2459L17.1089 19.0372C16.3355 18.5985 15.4505 18.368 14.5582 18.368H9.29318C8.98829 17.5053 8.16284 16.8807 7.19611 16.8807H2.74169C2.33269 16.8807 1.99805 17.2153 1.99805 17.6243V30.9801C1.99805 31.3891 2.33269 31.7238 2.74169 31.7238H7.19611C8.14053 31.7238 8.9511 31.1289 9.27087 30.296C10.1112 30.4001 11.0854 30.6455 11.6951 31.0173L15.577 33.3449C17.0494 34.2299 18.73 34.6909 20.4478 34.6909C21.8087 34.6909 23.1249 34.4083 24.3594 33.8432L38.2134 27.7453C39.7453 27.1206 40.5038 25.2838 39.6264 23.6627C38.9794 22.4803 37.4698 21.9523 36.1089 22.4357ZM7.93231 29.5152C7.93231 29.9242 7.59767 30.2514 7.18867 30.2514H3.48533V18.3828H7.19611C7.60511 18.3828 7.93975 18.7175 7.93975 19.1265V29.5152H7.93231ZM37.6483 26.3919C37.6408 26.3919 37.6334 26.3993 37.626 26.3993C37.626 26.3993 23.7496 32.5046 23.7496 32.512C22.7011 32.988 21.593 33.2259 20.4478 33.2259C19.0051 33.2259 17.5848 32.8318 16.3429 32.0882L12.4611 29.7606C11.6282 29.2623 10.4384 28.9574 9.4196 28.8384V19.8627H14.5507C15.1903 19.8627 15.8149 20.0263 16.3727 20.3386L20.2916 22.5472C20.6263 22.7331 21.0055 22.8373 21.3848 22.8373H26.1887C27.0067 22.8373 27.676 23.5065 27.676 24.3245C27.676 25.1425 27.0067 25.8118 26.1887 25.8118H18.6482C18.2392 25.8118 17.9046 26.1465 17.9046 26.5555C17.9046 26.9645 18.2392 27.2991 18.6482 27.2991H26.1962C26.6795 27.2991 27.1629 27.1801 27.5868 26.9496C27.5868 26.9496 36.6072 23.8486 36.6146 23.8486C37.2764 23.6106 38.035 23.8486 38.325 24.3915C38.7637 25.202 38.3993 26.087 37.6483 26.3919Z" fill="black"/>
<path d="M26.8134 0.0446186C24.813 0.0446186 23.2587 1.1229 22.2028 2.78122C21.1468 1.10059 19.5777 0 17.5624 0C14.3127 0 12 2.70686 12 5.97145C12 10.0987 15.748 12.7535 21.8012 18.0036C21.8904 18.0854 22.002 18.1374 22.1135 18.1597V18.2267C22.2771 18.2192 22.4407 18.1597 22.5746 18.0482C28.6278 12.7981 32.3758 10.1433 32.3758 6.01607C32.3758 2.74404 30.0631 0.0446186 26.8134 0.0446186ZM22.2176 16.3899C16.6849 11.6231 13.4873 9.25091 13.4873 5.96401C13.4873 3.40588 15.2423 1.47985 17.5624 1.47985C20.6263 1.47985 21.6525 5.07164 21.6674 5.10882C21.7343 5.33935 21.9053 5.51783 22.1135 5.59963V5.68886C22.3961 5.64425 22.6341 5.43603 22.7085 5.15344C22.7159 5.11626 23.7496 1.52447 26.8134 1.52447C29.1335 1.52447 30.8885 3.4505 30.8885 6.00863C30.8885 9.28809 27.7132 11.6603 22.2176 16.3899Z" fill="black"/>
</svg>
