<svg width="53" height="51" viewBox="0 0 53 51" fill="none" xmlns="http://www.w3.org/2000/svg">
<ellipse cx="34.1987" cy="32.8773" rx="17.98" ry="18.1227" fill="#BEBAFF"/>
<path d="M17.5 0C7.85053 0 0 7.85053 0 17.5C0 27.1495 7.85053 35 17.5 35C27.1495 35 35 27.1495 35 17.5C35 7.85053 27.1495 0 17.5 0ZM17.5 33.8333C8.49393 33.8333 1.16669 26.5061 1.16669 17.5C1.16669 8.49393 8.49393 1.16669 17.5 1.16669C26.5061 1.16669 33.8333 8.49393 33.8333 17.5C33.8333 26.5061 26.5061 33.8333 17.5 33.8333Z" fill="black"/>
<path d="M33.7202 22.7606C31.0392 21.0835 29.1667 16.0417 29.1667 10.5C29.1667 8.71681 29.3504 6.9878 29.7133 5.36146C29.7833 5.04708 29.585 4.73495 29.2705 4.66495C28.9549 4.59611 28.644 4.79326 28.574 5.10771C28.1931 6.81745 28 8.63164 28 10.5C28 16.5165 30.0504 21.8412 33.1019 23.7493C33.1981 23.8094 33.3049 23.838 33.4104 23.838C33.6047 23.838 33.7948 23.7411 33.9057 23.5644C34.076 23.2914 33.9931 22.9308 33.7202 22.7606Z" fill="black"/>
<path d="M13.1554 0.669676C13.0358 0.62244 12.9045 0.614237 12.7803 0.649237C5.25581 2.75279 0 9.68218 0 17.5C0 27.1495 7.85053 35 17.5 35C20.3781 35 23.2342 34.2843 25.7594 32.9298C25.9128 32.8475 26.0213 32.7005 26.0557 32.5302L26.243 31.5916L26.2552 31.5152C26.5393 29.7302 26.8333 27.8851 26.8333 25.9583C26.8333 14.1249 21.3366 3.962 13.1554 0.669676ZM25.1032 31.3315L24.9661 32.0291C22.6702 33.2104 20.0947 33.8334 17.5001 33.8334C8.49393 33.8333 1.16669 26.5061 1.16669 17.5C1.16669 10.2696 5.98268 3.85351 12.9034 1.827C20.5456 5.02253 25.6667 14.686 25.6667 25.9583C25.6667 27.793 25.3803 29.592 25.1032 31.3315Z" fill="black"/>
<path d="M13.6036 30.3648C12.5064 29.9903 11.4045 29.4391 10.2337 28.6778C9.96309 28.5022 9.60195 28.5786 9.42641 28.8487C9.25086 29.1188 9.32722 29.4799 9.5973 29.6555C10.8503 30.4699 12.0374 31.0631 13.2274 31.4685C13.2898 31.4895 13.3534 31.5001 13.4158 31.5001C13.6585 31.5001 13.8854 31.3472 13.9677 31.1057C14.0715 30.8006 13.9087 30.4687 13.6036 30.3648Z" fill="black"/>
<path d="M7.45455 26.4682C7.31804 26.2985 7.16874 26.12 7.01411 25.9362C6.56028 25.3955 6.04519 24.783 5.77045 24.237C5.62519 23.9494 5.27464 23.8327 4.98705 23.9786C4.69947 24.1238 4.58339 24.4744 4.72866 24.762C5.06464 25.4293 5.6258 26.0972 6.12107 26.687C6.26982 26.8637 6.41392 27.0352 6.54455 27.1979C6.66008 27.342 6.8292 27.4167 7.00017 27.4167C7.12793 27.4167 7.25686 27.3747 7.36473 27.2884C7.61616 27.0865 7.65642 26.7196 7.45455 26.4682Z" fill="black"/>
<path d="M33.834 12.4915C16.7569 12.3556 6.68506 18.0793 1.24023 22.925C0.999883 23.1391 0.97835 23.5078 1.19238 23.7487C1.30729 23.8781 1.46773 23.9441 1.62811 23.9441C1.76578 23.9441 1.90462 23.8951 2.01543 23.7965C7.30686 19.0872 17.1285 13.5199 33.8228 13.6582C33.8252 13.6582 33.8269 13.6582 33.8287 13.6582C34.1483 13.6582 34.4091 13.4003 34.412 13.0801C34.415 12.7581 34.156 12.4944 33.834 12.4915Z" fill="black"/>
<path d="M5.30832 5.83327C5.13038 5.83327 4.95368 5.82569 4.7769 5.81694C4.45315 5.81113 4.1819 6.05025 4.16672 6.37229C4.151 6.69371 4.39949 6.96729 4.72146 6.98246C4.91628 6.99183 5.11172 6.99996 5.30832 6.99996C13.0281 6.99996 19.3083 14.4579 19.3083 23.625C19.3083 27.7071 18.3172 31.3203 16.4424 34.0736C16.261 34.3402 16.3298 34.703 16.5964 34.8844C16.6968 34.9527 16.8111 34.9853 16.9243 34.9853C17.111 34.9853 17.2941 34.8961 17.4073 34.7304C19.414 31.7823 20.4751 27.9422 20.4751 23.6249C20.475 13.8144 13.671 5.83327 5.30832 5.83327Z" fill="black"/>
</svg>
