<svg width="52" height="42" viewBox="0 0 52 42" fill="none" xmlns="http://www.w3.org/2000/svg">
<ellipse cx="33.1987" cy="23.8773" rx="17.98" ry="18.1227" fill="#EBDBF5"/>
<path d="M0.603691 0C0.443582 0 0.290031 0.0636031 0.176817 0.176817C0.063603 0.290031 0 0.443582 0 0.603691L0 10.2627C0 10.4229 0.063603 10.5764 0.176817 10.6896C0.290031 10.8028 0.443582 10.8664 0.603691 10.8664H4.22584C4.38595 10.8664 4.5395 10.8028 4.65271 10.6896C4.76593 10.5764 4.82953 10.4229 4.82953 10.2627V9.65906H6.6406C6.80071 9.65906 6.95426 9.59546 7.06748 9.48224C7.18069 9.36903 7.24429 9.21548 7.24429 9.05537V7.24429H12.6934C12.8648 7.47322 13.0681 7.6765 13.2971 7.84798H13.2812V10.013L11.043 12.2504C10.9869 12.3065 10.9424 12.373 10.912 12.4463C10.8816 12.5196 10.866 12.5982 10.866 12.6775C10.866 12.7568 10.8816 12.8354 10.912 12.9087C10.9424 12.982 10.9869 13.0486 11.043 13.1046L13.2812 15.3421V16.2997H12.0738V17.507H13.2812V19.0812C12.5009 19.9464 12.0705 21.0711 12.0738 22.2362V26.5662C12.0738 26.7263 12.1374 26.8798 12.2506 26.9931C12.3639 27.1063 12.5174 27.1699 12.6775 27.1699H17.507C17.6672 27.1699 17.8207 27.1063 17.9339 26.9931C18.0471 26.8798 18.1107 26.7263 18.1107 26.5662V22.2332C18.1134 21.0691 17.6831 19.9456 16.9034 19.0812V17.507H18.1107V16.2997H16.9034V15.3421L19.1415 13.1046C19.1977 13.0486 19.2422 12.982 19.2726 12.9087C19.303 12.8354 19.3186 12.7568 19.3186 12.6775C19.3186 12.5982 19.303 12.5196 19.2726 12.4463C19.2422 12.373 19.1977 12.3065 19.1415 12.2504L16.9034 10.013V7.84798H16.8845C17.2331 7.59192 17.5224 7.26371 17.7326 6.88572C17.9429 6.50772 18.0692 6.08884 18.1029 5.65761C18.1366 5.22639 18.0769 4.79298 17.9279 4.38691C17.7789 3.98084 17.5441 3.61167 17.2396 3.30456C16.935 2.99745 16.5678 2.75963 16.1629 2.6073C15.7581 2.45497 15.3252 2.39173 14.8937 2.42187C14.4622 2.45201 14.0423 2.57484 13.6626 2.78197C13.2829 2.9891 12.9523 3.27567 12.6934 3.62215H7.24429V1.81107C7.24429 1.65096 7.18069 1.49741 7.06748 1.3842C6.95426 1.27099 6.80071 1.20738 6.6406 1.20738H4.82953V0.603691C4.82953 0.443582 4.76593 0.290031 4.65271 0.176817C4.5395 0.0636031 4.38595 0 4.22584 0H0.603691ZM16.9034 5.43322C16.9034 5.79142 16.7971 6.14157 16.5981 6.4394C16.3991 6.73723 16.1163 6.96936 15.7853 7.10643C15.4544 7.24351 15.0903 7.27937 14.739 7.20949C14.3876 7.13961 14.0649 6.96713 13.8117 6.71384C13.5584 6.46056 13.3859 6.13786 13.316 5.78654C13.2461 5.43523 13.282 5.07108 13.4191 4.74015C13.5561 4.40922 13.7883 4.12637 14.0861 3.92737C14.3839 3.72836 14.7341 3.62215 15.0923 3.62215C15.5726 3.62215 16.0333 3.81296 16.3729 4.1526C16.7125 4.49224 16.9034 4.95289 16.9034 5.43322V5.43322ZM14.4886 19.3181V17.507H15.696V19.3181C15.6959 19.3974 15.7115 19.476 15.7418 19.5492C15.7721 19.6225 15.8165 19.6891 15.8725 19.7452C16.2008 20.0713 16.4609 20.4594 16.6378 20.8869C16.8148 21.3144 16.9051 21.7728 16.9034 22.2355V25.9617H13.2812V22.2324C13.2795 21.7698 13.3698 21.3114 13.5467 20.8839C13.7237 20.4564 13.9838 20.0683 14.312 19.7422C14.4245 19.6296 14.4879 19.4772 14.4886 19.3181V19.3181ZM14.4886 16.2997V15.0923H15.696V16.2997H14.4886ZM12.3236 12.6775L14.1347 10.8664H16.0499L17.861 12.6775L16.5781 13.9604C16.4932 13.9127 16.3978 13.8867 16.3004 13.8849H13.8849C13.7875 13.8867 13.6921 13.9127 13.6072 13.9604L12.3236 12.6775ZM14.4886 8.39055C14.8869 8.47205 15.2976 8.47205 15.696 8.39055V9.65906H14.4886V8.39055ZM7.24429 6.03691V4.82953H12.1349C12.0534 5.22786 12.0534 5.63858 12.1349 6.03691H7.24429ZM4.82953 8.45168V2.41476H6.03691V8.45168H4.82953ZM1.20738 1.20738H3.62215V9.65906H1.20738V1.20738Z" fill="black"/>
<path d="M34.4102 28.1094V25.5437C34.4135 24.3786 33.9831 23.2539 33.2028 22.3886V20.8168H34.4102V19.6094H33.2028V17.7983C33.2028 17.6382 33.1392 17.4847 33.026 17.3715C32.9128 17.2582 32.7593 17.1946 32.5991 17.1946H30.1844C30.0243 17.1946 29.8707 17.2582 29.7575 17.3715C29.6443 17.4847 29.5807 17.6382 29.5807 17.7983V19.6094H28.3733V20.8168H29.5807V22.3879C28.8003 23.2531 28.3699 24.3778 28.3733 25.5429V28.0611H4.82935C3.70859 28.0611 2.63373 28.5063 1.84123 29.2988C1.04874 30.0913 0.603516 31.1662 0.603516 32.2869C0.603516 33.4077 1.04874 34.4825 1.84123 35.275C2.63373 36.0675 3.70859 36.5128 4.82935 36.5128H33.8065C34.8692 36.5046 35.8898 36.0963 36.6649 35.3693C37.4401 34.6422 37.9128 33.6498 37.989 32.5898C38.0651 31.5298 37.7391 30.4801 37.0758 29.6497C36.4126 28.8194 35.4608 28.2694 34.4102 28.1094V28.1094ZM30.7881 18.402H31.9955V19.6094H30.7881V18.402ZM29.5807 25.5422C29.579 25.0795 29.6692 24.6211 29.8462 24.1936C30.0231 23.7661 30.2833 23.3781 30.6115 23.052C30.7239 22.9394 30.7874 22.787 30.7881 22.6279V20.8168H31.9955V22.6279C31.9954 22.7072 32.011 22.7857 32.0413 22.859C32.0715 22.9323 32.116 22.9989 32.172 23.055C32.5002 23.3811 32.7604 23.7691 32.9373 24.1966C33.1143 24.6241 33.2045 25.0825 33.2028 25.5452V28.0611H29.5807V25.5422ZM33.8065 35.3054H4.82935C4.02881 35.3054 3.26105 34.9874 2.69498 34.4213C2.12891 33.8552 1.8109 33.0875 1.8109 32.2869C1.8109 31.4864 2.12891 30.7186 2.69498 30.1525C3.26105 29.5865 4.02881 29.2685 4.82935 29.2685H33.8065C34.6071 29.2685 35.3748 29.5865 35.9409 30.1525C36.507 30.7186 36.825 31.4864 36.825 32.2869C36.825 33.0875 36.507 33.8552 35.9409 34.4213C35.3748 34.9874 34.6071 35.3054 33.8065 35.3054V35.3054Z" fill="black"/>
</svg>
