<svg width="79" height="71" viewBox="0 0 79 71" fill="none" xmlns="http://www.w3.org/2000/svg">
<ellipse cx="55.7484" cy="48.3466" rx="22.475" ry="22.6534" fill="#FFCBC8"/>
<path fill-rule="evenodd" clip-rule="evenodd" d="M3 0C1.34315 0 0 1.34315 0 3V43C0 44.6569 1.34315 46 3 46H62C63.6569 46 65 44.6569 65 43V3C65 1.34315 63.6569 0 62 0H3ZM4 2.35897C2.89543 2.35897 2 3.2544 2 4.35897V41.641C2 42.7456 2.89543 43.641 4 43.641H61C62.1046 43.641 63 42.7456 63 41.641V4.35897C63 3.25441 62.1046 2.35897 61 2.35897H4Z" fill="#FF6584"/>
<path d="M20.8216 31.7301C21.0793 31.9015 21.4229 31.8158 21.7664 31.6444C22.0241 31.473 22.196 31.1303 22.1101 30.7876L21.2511 25.7321L24.9448 22.219C25.2025 21.9619 25.2884 21.6191 25.2025 21.3622C25.1166 21.0194 24.8589 20.848 24.5154 20.7623L19.4471 19.9912L17.2138 15.4499C16.956 14.85 15.9253 14.85 15.6675 15.4499L13.4342 19.9912L8.36596 20.7623C8.02233 20.848 7.76461 21.0194 7.6787 21.3622C7.59279 21.7049 7.6787 22.0477 7.93642 22.219L11.6301 25.7321L10.7711 30.7876C10.6852 31.1304 10.8571 31.4731 11.1148 31.6444C11.3725 31.8158 11.7161 31.9015 12.0597 31.7301L16.6124 29.331L20.8216 31.7301ZM16.0112 27.6172L12.4892 29.4167L13.1763 25.6465C13.2622 25.3895 13.0904 25.0467 12.9186 24.8754L10.1698 22.2192L13.9494 21.7051C14.2071 21.7051 14.4648 21.448 14.6365 21.2766L16.3546 17.8491L18.0726 21.2766C18.1585 21.5337 18.4163 21.7051 18.7598 21.7051L22.5394 22.2192L19.7905 24.8754C19.6187 25.0468 19.5328 25.3896 19.5328 25.6465L20.22 29.4167L16.8698 27.6172C16.7839 27.5315 16.6121 27.5315 16.4403 27.5315C16.2684 27.5315 16.183 27.5315 16.0112 27.6172Z" fill="#FF6584"/>
<path fill-rule="evenodd" clip-rule="evenodd" d="M37.4707 18C37.4707 17.4477 37.9184 17 38.4707 17H54.8236C55.3759 17 55.8236 17.4477 55.8236 18C55.8236 18.5523 55.3759 19 54.8236 19H38.4707C37.9184 19 37.4707 18.5523 37.4707 18ZM37.4707 23C37.4707 22.4477 37.9184 22 38.4707 22H54.8236C55.3759 22 55.8236 22.4477 55.8236 23C55.8236 23.5523 55.3759 24 54.8236 24H38.4707C37.9184 24 37.4707 23.5523 37.4707 23ZM38.4707 27C37.9184 27 37.4707 27.4477 37.4707 28C37.4707 28.5523 37.9184 29 38.4707 29H54.8236C55.3759 29 55.8236 28.5523 55.8236 28C55.8236 27.4477 55.3759 27 54.8236 27H38.4707Z" fill="#FF6584"/>
</svg>
