<svg width="65" height="75" viewBox="0 0 65 75" fill="none" xmlns="http://www.w3.org/2000/svg">
<ellipse cx="41.7484" cy="52.3466" rx="22.475" ry="22.6534" fill="#DAFFF2"/>
<path fill-rule="evenodd" clip-rule="evenodd" d="M30.5458 12.128L41.7891 13.7626C42.4333 13.8564 43.0384 14.1285 43.5361 14.5482C44.0337 14.9678 44.4041 15.5183 44.6053 16.1374C44.8065 16.7565 44.8305 17.4196 44.6746 18.0516C44.5187 18.6837 44.1892 19.2595 43.7232 19.7141L35.5858 27.6461L37.5015 38.8473C37.6104 39.4886 37.5378 40.1477 37.2921 40.75C37.0464 41.3523 36.6372 41.874 36.1108 42.2562C35.5844 42.6384 34.9616 42.8659 34.3128 42.9131C33.664 42.9602 33.0149 42.8251 32.4388 42.523L26.769 39.5412L25.1087 36.2205L33.4539 40.6084C33.6731 40.7239 33.9204 40.7757 34.1675 40.7579C34.4147 40.7401 34.652 40.6534 34.8524 40.5077C35.0528 40.362 35.2084 40.163 35.3016 39.9333C35.3947 39.7037 35.4216 39.4525 35.3793 39.2083L33.362 27.4471C33.3325 27.2744 33.3454 27.097 33.3996 26.9303C33.4538 26.7636 33.5478 26.6127 33.6734 26.4904L42.214 18.1659C42.3908 17.9931 42.5159 17.7744 42.5751 17.5344C42.6343 17.2943 42.6253 17.0425 42.5491 16.8073C42.4729 16.5721 42.3326 16.3628 42.1439 16.2031C41.9552 16.0434 41.7256 15.9395 41.481 15.9032L29.6733 14.1875C29.4997 14.1625 29.3347 14.0956 29.1927 13.9925C29.0507 13.8895 28.9359 13.7535 28.8582 13.5962L23.577 2.89333C23.4674 2.67154 23.298 2.48483 23.0878 2.35428C22.8777 2.22372 22.6352 2.15454 22.3878 2.15454C22.1404 2.15454 21.898 2.22372 21.6878 2.35428C21.4777 2.48483 21.3082 2.67154 21.1986 2.89333L15.9175 13.5962C15.8399 13.7533 15.7253 13.8893 15.5834 13.9923C15.4416 14.0953 15.2769 14.1623 15.1034 14.1875L3.29463 15.9032C3.0481 15.9377 2.81626 16.0409 2.6256 16.2009C2.43494 16.361 2.29317 16.5714 2.21648 16.8083C2.13979 17.0451 2.13129 17.2987 2.19195 17.5401C2.25261 17.7816 2.37997 18.0011 2.55948 18.1735L11.1001 26.4979C11.2255 26.6203 11.3193 26.7714 11.3733 26.938C11.4274 27.1047 11.4401 27.282 11.4104 27.4547L9.39416 39.2127C9.35195 39.4571 9.37915 39.7084 9.47267 39.9381C9.5662 40.1678 9.72229 40.3666 9.92321 40.512C10.1241 40.6574 10.3618 40.7435 10.6092 40.7606C10.8567 40.7776 11.1039 40.7249 11.3228 40.6084L17.9481 37.1248L16.597 40.2775L12.325 42.523C11.7489 42.8255 11.0997 42.961 10.4507 42.914C9.80168 42.8671 9.17872 42.6396 8.65216 42.2573C8.1256 41.875 7.71641 41.3531 7.4708 40.7505C7.2252 40.148 7.15296 39.4887 7.26224 38.8473L9.18659 27.645L1.04812 19.713C0.583713 19.2582 0.255549 18.6828 0.100604 18.0515C-0.0543415 17.4203 -0.0299096 16.7583 0.171146 16.1402C0.372202 15.5221 0.741891 14.9724 1.23855 14.5531C1.73522 14.1338 2.33911 13.8615 2.98219 13.767L14.2256 12.1324L19.2548 1.94089C19.5439 1.35805 19.99 0.86754 20.5429 0.524619C21.0958 0.181698 21.7334 0 22.384 0C23.0346 0 23.6723 0.181698 24.2252 0.524619C24.7781 0.86754 25.2242 1.35805 25.5133 1.94089L30.5458 12.128Z" fill="#33BC8C"/>
<path d="M27.8693 51.5673H26.5455L27.8372 47.3126C27.8659 47.2179 27.8755 47.1184 27.8654 47.02C27.8553 46.9216 27.8257 46.8261 27.7783 46.7393L23.3071 38.5421C23.243 38.4246 23.1484 38.3265 23.0333 38.2582C22.9182 38.1899 22.7868 38.1538 22.6529 38.1538C22.5191 38.1538 22.3877 38.1899 22.2726 38.2582C22.1574 38.3265 22.0629 38.4246 21.9988 38.5421L17.5276 46.7393C17.4339 46.911 17.4115 47.1127 17.4653 47.3009L18.6842 51.5673H17.4366C17.239 51.5673 17.0494 51.6458 16.9097 51.7855C16.7699 51.9253 16.6914 52.1148 16.6914 52.3125V56.0384C16.6914 56.2361 16.7699 56.4256 16.9097 56.5654C17.0494 56.7051 17.239 56.7836 17.4366 56.7836H18.1818V61.2548C18.1818 61.4524 18.2603 61.6419 18.4001 61.7817C18.5398 61.9215 18.7293 62 18.927 62H26.3789C26.5765 62 26.7661 61.9215 26.9058 61.7817C27.0456 61.6419 27.1241 61.4524 27.1241 61.2548V56.7836H27.8693C28.0669 56.7836 28.2565 56.7051 28.3962 56.5654C28.536 56.4256 28.6145 56.2361 28.6145 56.0384V52.3125C28.6145 52.1148 28.536 51.9253 28.3962 51.7855C28.2565 51.6458 28.0669 51.5673 27.8693 51.5673ZM18.9822 47.1849L22.6529 40.4552L26.3203 47.1786L24.988 51.5673H23.3981V47.0961C23.3981 46.8985 23.3196 46.7089 23.1799 46.5692C23.0401 46.4294 22.8506 46.3509 22.6529 46.3509C22.4553 46.3509 22.2658 46.4294 22.126 46.5692C21.9863 46.7089 21.9078 46.8985 21.9078 47.0961V51.5673H20.2342L18.9822 47.1849ZM25.6337 60.5096H19.6722V56.7836H25.6337V60.5096ZM27.1241 55.2932H18.1818V53.0577H27.1241V55.2932Z" fill="#33BC8C"/>
</svg>
