<svg width="61" height="65" viewBox="0 0 61 65" fill="none" xmlns="http://www.w3.org/2000/svg">
<ellipse cx="37.7484" cy="42.3465" rx="22.475" ry="22.6534" fill="#EEEDFF"/>
<path d="M23.4884 26.898C23.7327 27.0609 24.0584 26.9795 24.384 26.8166C24.6283 26.6538 24.7912 26.328 24.7097 26.0024L23.8955 21.1984L27.3967 17.8599C27.641 17.6157 27.7224 17.2899 27.641 17.0458C27.5596 16.72 27.3153 16.5572 26.9897 16.4757L22.1856 15.743L20.0686 11.4275C19.8243 10.8575 18.8473 10.8575 18.603 11.4275L16.486 15.743L11.682 16.4757C11.3563 16.5572 11.112 16.72 11.0305 17.0458C10.9491 17.3715 11.0305 17.6972 11.2748 17.8599L14.776 21.1984L13.9618 26.0024C13.8804 26.3281 14.0432 26.6539 14.2875 26.8166C14.5318 26.9795 14.8575 27.0609 15.1832 26.898L19.4986 24.6182L23.4884 26.898ZM18.9287 22.9897L15.5903 24.6996L16.2416 21.117C16.3231 20.8728 16.1602 20.547 15.9973 20.3843L13.3918 17.8602L16.9744 17.3716C17.2187 17.3716 17.463 17.1273 17.6257 16.9644L19.2542 13.7074L20.8827 16.9644C20.9641 17.2087 21.2084 17.3716 21.534 17.3716L25.1167 17.8602L22.5111 20.3843C22.3482 20.5471 22.2668 20.8729 22.2668 21.117L22.9181 24.6996L19.7426 22.9897C19.6612 22.9083 19.4983 22.9083 19.3354 22.9083C19.1726 22.9083 19.0916 22.9083 18.9287 22.9897Z" fill="#6C63FF"/>
<rect x="6" y="48" width="25" height="4" rx="2" fill="#6C63FF"/>
<path d="M16 38C16 36.8954 16.8954 36 18 36H19C20.1046 36 21 36.8954 21 38V48H16V38Z" fill="#6C63FF"/>
<path fill-rule="evenodd" clip-rule="evenodd" d="M3 0C1.34315 0 0 1.34315 0 3V19.8513C0 30.1503 8.34906 38.4994 18.6481 38.4994C28.9472 38.4994 37.2963 30.1503 37.2963 19.8513V3C37.2963 1.34315 35.9531 0 34.2963 0H3ZM6.60915 3.60933C4.95229 3.60933 3.60915 4.95248 3.60915 6.60933V19.8513C3.60915 28.157 10.3423 34.8901 18.648 34.8901C26.9537 34.8901 33.6868 28.157 33.6868 19.8513V6.60933C33.6868 4.95247 32.3437 3.60933 30.6868 3.60933H6.60915Z" fill="#6C63FF"/>
</svg>
