<svg width="53" height="52" viewBox="0 0 53 52" fill="none" xmlns="http://www.w3.org/2000/svg">
<ellipse cx="34.1987" cy="33.8773" rx="17.98" ry="18.1227" fill="#EBDBF5"/>
<path d="M36.9192 3.62504C34.7267 1.42626 31.7882 0.147618 28.6969 0.047151C25.6056 -0.0533164 22.5915 1.03187 20.263 3.08372C17.9088 0.984499 14.8411 -0.116802 11.7004 0.00982534C8.5597 0.136452 5.589 1.48122 3.40872 3.76325C1.22845 6.04529 0.00719347 9.08813 3.1677e-05 12.2563C-0.00713011 15.4244 1.20035 18.4728 3.37029 20.7648C3.48729 21.0572 2.55779 20.0016 19.7202 37.3363C19.8726 37.4898 20.0792 37.576 20.2947 37.576C20.5101 37.576 20.7167 37.4898 20.8691 37.3363L37.0379 21.0392C39.2642 18.6886 40.4965 15.5576 40.4743 12.3079C40.4522 9.05826 39.1774 5.9446 36.9192 3.62504V3.62504ZM35.8061 19.7976C9.84673 46.3504 30.7467 24.9521 20.2947 35.6034C20.1793 35.4854 4.85717 19.9614 4.74098 19.8402C2.75999 17.8437 1.647 15.1358 1.64685 12.3122C1.6467 9.48859 2.7594 6.78056 4.74017 4.78385C6.72094 2.78715 9.40752 1.66532 12.2089 1.66517C15.0103 1.66501 17.697 2.78654 19.678 4.78304C19.8451 4.92908 20.0605 5.00665 20.2816 5.00043C20.5028 4.99421 20.7135 4.90466 20.8724 4.74946C22.8705 2.84519 25.5267 1.80144 28.2763 1.84005C31.0259 1.87867 33.6522 2.9966 35.5969 4.95624C37.5417 6.91587 38.6515 9.5627 38.6906 12.3341C38.7296 15.1056 37.6948 17.7831 35.8061 19.7976V19.7976Z" fill="black"/>
<path d="M28.2988 4.12207C28.0833 4.12207 27.8767 4.20835 27.7243 4.36194C27.5719 4.51552 27.4863 4.72382 27.4863 4.94102C27.4863 5.15822 27.5719 5.36652 27.7243 5.5201C27.8767 5.67369 28.0833 5.75997 28.2988 5.75997C30.0221 5.76192 31.6743 6.4528 32.8929 7.68104C34.1115 8.90928 34.7969 10.5746 34.7988 12.3116C34.7988 12.5288 34.8844 12.7371 35.0368 12.8906C35.1892 13.0442 35.3958 13.1305 35.6113 13.1305C35.8268 13.1305 36.0335 13.0442 36.1859 12.8906C36.3382 12.7371 36.4238 12.5288 36.4238 12.3116C36.4215 10.1403 35.5647 8.05866 34.0415 6.52335C32.5182 4.98804 30.453 4.12445 28.2988 4.12207V4.12207Z" fill="black"/>
</svg>
