<svg width="58" height="52" viewBox="0 0 58 52" fill="none" xmlns="http://www.w3.org/2000/svg">
<circle cx="38.1987" cy="32.4048" r="19.5952" fill="#FFBCCA"/>
<path d="M42.4304 0H40.6595C39.9549 0 39.2792 0.279877 38.781 0.77806C38.2829 1.27624 38.003 1.95193 38.003 2.65646V9.74037H35.3465V8.58923C35.3482 7.95206 35.1584 7.32907 34.8018 6.80105C34.4452 6.27303 33.9382 5.86432 33.3465 5.62793C32.7548 5.39153 32.1057 5.33836 31.4834 5.47529C30.8611 5.61222 30.2943 5.93294 29.8565 6.39588C29.8388 6.37728 29.8255 6.35515 29.8078 6.33655C29.5081 6.03529 29.1509 5.79731 28.7574 5.63674C28.364 5.47617 27.9422 5.39628 27.5173 5.40182C27.0924 5.40735 26.6729 5.49819 26.2838 5.66896C25.8946 5.83972 25.5437 6.08691 25.252 6.39588C24.9576 6.08028 24.601 5.82902 24.2048 5.65789C23.8086 5.48675 23.3813 5.39945 22.9497 5.40148C22.5185 5.40214 22.092 5.49065 21.6962 5.66162C21.3003 5.83259 20.9435 6.08242 20.6474 6.39588C20.3531 6.08016 19.9966 5.82881 19.6004 5.65766C19.2042 5.48652 18.7768 5.39929 18.3452 5.40148C17.4997 5.40148 16.6889 5.73733 16.0911 6.33515C15.4933 6.93297 15.1574 7.74379 15.1574 8.58923V9.74037H7.8964V2.65646C7.8964 1.95193 7.61653 1.27624 7.11834 0.77806C6.62016 0.279877 5.94448 0 5.23994 0H3.46896C2.76443 0 2.08874 0.279877 1.59056 0.77806C1.09238 1.27624 0.8125 1.95193 0.8125 2.65646V27.4501C0.8125 28.1547 1.09238 28.8303 1.59056 29.3285C2.08874 29.8267 2.76443 30.1066 3.46896 30.1066H5.23994C5.94448 30.1066 6.62016 29.8267 7.11834 29.3285C7.61653 28.8303 7.8964 28.1547 7.8964 27.4501V20.3662H10.6963C11.0389 22.3159 12.0464 24.0867 13.5476 25.3772C14.2935 26.0158 14.8922 26.8085 15.3026 27.7005C15.713 28.5926 15.9254 29.5629 15.9251 30.5449V30.8672C15.1875 31.0786 14.5513 31.5497 14.1338 32.1935C13.7164 32.8373 13.5459 33.6104 13.6538 34.37C13.7617 35.1297 14.1407 35.8247 14.7209 36.3268C15.3011 36.8289 16.0433 37.1042 16.8106 37.1019H29.8565C30.6238 37.1042 31.366 36.8289 31.9462 36.3268C32.5264 35.8247 32.9055 35.1297 33.0133 34.37C33.1212 33.6104 32.9507 32.8373 32.5333 32.1935C32.1158 31.5497 31.4796 31.0786 30.742 30.8672V30.2615C30.7475 28.4133 31.4815 26.6417 32.7848 25.3311C34.1318 23.9934 34.9989 22.2479 35.2509 20.3662H38.003V27.4501C38.003 28.1547 38.2829 28.8303 38.781 29.3285C39.2792 29.8267 39.9549 30.1066 40.6595 30.1066H42.4304C43.135 30.1066 43.8106 29.8267 44.3088 29.3285C44.807 28.8303 45.0869 28.1547 45.0869 27.4501V2.65646C45.0869 1.95193 44.807 1.27624 44.3088 0.77806C43.8106 0.279877 43.135 0 42.4304 0ZM6.12543 10.6259V27.4501C6.12543 27.685 6.03213 27.9102 5.86607 28.0763C5.70001 28.2423 5.47478 28.3356 5.23994 28.3356H3.46896C3.23412 28.3356 3.00889 28.2423 2.84283 28.0763C2.67677 27.9102 2.58348 27.685 2.58348 27.4501V2.65646C2.58348 2.42162 2.67677 2.19639 2.84283 2.03033C3.00889 1.86427 3.23412 1.77098 3.46896 1.77098H5.23994C5.47478 1.77098 5.70001 1.86427 5.86607 2.03033C6.03213 2.19639 6.12543 2.42162 6.12543 2.65646V10.6259ZM26.1375 8.58923C26.1375 8.21348 26.2867 7.85311 26.5524 7.58742C26.8181 7.32172 27.1785 7.17245 27.5542 7.17245C27.93 7.17245 28.2903 7.32172 28.556 7.58742C28.8217 7.85311 28.971 8.21348 28.971 8.58923V13.1938C28.971 13.5695 28.8217 13.9299 28.556 14.1956C28.2903 14.4613 27.93 14.6105 27.5542 14.6105C27.1785 14.6105 26.8181 14.4613 26.5524 14.1956C26.2867 13.9299 26.1375 13.5695 26.1375 13.1938V8.58923ZM21.5329 8.58923C21.5329 8.21348 21.6822 7.85311 21.9479 7.58742C22.2136 7.32172 22.5739 7.17245 22.9497 7.17245C23.3254 7.17245 23.6858 7.32172 23.9515 7.58742C24.2172 7.85311 24.3665 8.21348 24.3665 8.58923V11.7159C23.837 11.3512 23.2091 11.1563 22.5663 11.1571H21.5329V8.58923ZM16.9284 8.58923C16.9284 8.21348 17.0776 7.85311 17.3433 7.58742C17.609 7.32172 17.9694 7.17245 18.3452 7.17245C18.7209 7.17245 19.0813 7.32172 19.347 7.58742C19.6127 7.85311 19.7619 8.21348 19.7619 8.58923V11.1571H16.9284V8.58923ZM10.6636 13.555C10.5938 13.6794 10.5557 13.819 10.5529 13.9615V18.5952H7.8964V11.5113H12.3106C11.9021 11.7091 11.5425 11.995 11.2577 12.3484C10.9729 12.7017 10.77 13.1139 10.6636 13.555V13.555ZM31.2733 33.9142C31.2733 34.2899 31.124 34.6503 30.8583 34.916C30.5926 35.1817 30.2323 35.331 29.8565 35.331H16.8106C16.4349 35.331 16.0745 35.1817 15.8088 34.916C15.5431 34.6503 15.3938 34.2899 15.3938 33.9142C15.3938 33.5384 15.5431 33.1781 15.8088 32.9124C16.0745 32.6467 16.4349 32.4974 16.8106 32.4974H29.8565C30.2323 32.4974 30.5926 32.6467 30.8583 32.9124C31.124 33.1781 31.2733 33.5384 31.2733 33.9142V33.9142ZM33.5755 19.1487C33.5753 20.998 32.8405 22.7715 31.5327 24.0791C29.898 25.7222 28.9775 27.9438 28.971 30.2615V30.7264H17.6961V30.5449C17.6968 29.3075 17.4294 28.0847 16.9122 26.9605C16.3951 25.8364 15.6405 24.8376 14.7005 24.033C13.9547 23.3944 13.356 22.6017 12.9458 21.7097C12.5355 20.8176 12.3233 19.8472 12.3238 18.8653V14.3449C12.3238 13.9691 12.4731 13.6088 12.7388 13.3431C13.0045 13.0774 13.3649 12.9281 13.7406 12.9281H22.5663C22.942 12.9281 23.3024 13.0774 23.5681 13.3431C23.8338 13.6088 23.9831 13.9691 23.9831 14.3449C23.9831 14.7207 23.8338 15.081 23.5681 15.3467C23.3024 15.6124 22.942 15.7617 22.5663 15.7617H17.5774C17.3426 15.7617 17.1174 15.855 16.9513 16.021C16.7852 16.1871 16.692 16.4123 16.692 16.6472C16.692 16.882 16.7852 17.1072 16.9513 17.2733C17.1174 17.4394 17.3426 17.5327 17.5774 17.5327H22.5663C23.1892 17.532 23.7983 17.3483 24.3178 17.0045C24.8372 16.6607 25.2443 16.1719 25.4884 15.5988C26.1018 16.138 26.9009 16.4175 27.7166 16.378C28.5324 16.3385 29.3008 15.9831 29.8592 15.3871C30.3239 15.8854 30.9387 16.2183 31.61 16.3351C32.2813 16.452 32.9724 16.3464 33.5782 16.0344L33.5755 19.1487ZM33.5755 13.1938C33.5755 13.5695 33.4263 13.9299 33.1606 14.1956C32.8949 14.4613 32.5345 14.6105 32.1588 14.6105C31.783 14.6105 31.4227 14.4613 31.157 14.1956C30.8913 13.9299 30.742 13.5695 30.742 13.1938V8.58923C30.742 8.21348 30.8913 7.85311 31.157 7.58742C31.4227 7.32172 31.783 7.17245 32.1588 7.17245C32.5345 7.17245 32.8949 7.32172 33.1606 7.58742C33.4263 7.85311 33.5755 8.21348 33.5755 8.58923V13.1938ZM38.003 18.5952H35.3465V11.5113H38.003V18.5952ZM43.3159 27.4501C43.3159 27.685 43.2226 27.9102 43.0566 28.0763C42.8905 28.2423 42.6653 28.3356 42.4304 28.3356H40.6595C40.4246 28.3356 40.1994 28.2423 40.0333 28.0763C39.8673 27.9102 39.774 27.685 39.774 27.4501V2.65646C39.774 2.42162 39.8673 2.19639 40.0333 2.03033C40.1994 1.86427 40.4246 1.77098 40.6595 1.77098H42.4304C42.6653 1.77098 42.8905 1.86427 43.0566 2.03033C43.2226 2.19639 43.3159 2.42162 43.3159 2.65646V27.4501Z" fill="black"/>
</svg>
