<svg width="57" height="53" viewBox="0 0 57 53" fill="none" xmlns="http://www.w3.org/2000/svg">
<circle cx="36.7601" cy="32.9069" r="19.9065" fill="#FFE79C"/>
<path d="M39.6068 4.45017H37.956V3.28881C37.9559 2.90996 37.8688 2.5362 37.7015 2.19628C37.5342 1.85637 37.2912 1.55937 36.9911 1.32815C36.691 1.09693 36.3418 0.937655 35.9705 0.862582C35.5991 0.787508 35.2155 0.79864 34.8492 0.895121L21.4478 4.4221L8.04558 0.895121C7.67927 0.79879 7.29575 0.787772 6.92452 0.862915C6.55329 0.938058 6.20425 1.09736 5.90424 1.32856C5.60424 1.55977 5.36126 1.85671 5.19402 2.19655C5.02678 2.53638 4.93973 2.91005 4.93956 3.28881V4.45017H3.28873C2.632 4.45017 2.00216 4.71106 1.53777 5.17544C1.07339 5.63982 0.8125 6.26966 0.8125 6.9264V31.6887C0.8125 32.3455 1.07339 32.9753 1.53777 33.4397C2.00216 33.9041 2.632 34.165 3.28873 34.165H39.6068C40.2636 34.165 40.8934 33.9041 41.3578 33.4397C41.8222 32.9753 42.0831 32.3455 42.0831 31.6887V6.9264C42.0831 6.26966 41.8222 5.63982 41.3578 5.17544C40.8934 4.71106 40.2636 4.45017 39.6068 4.45017V4.45017ZM35.2701 2.49229C35.3921 2.46026 35.5198 2.4566 35.6434 2.4816C35.767 2.50659 35.8832 2.55958 35.9832 2.63649C36.0831 2.7134 36.1641 2.81218 36.2199 2.92526C36.2757 3.03834 36.3049 3.16271 36.3052 3.28881V28.5769L22.2732 32.269V5.91197L35.2701 2.49229ZM6.59038 3.28881C6.59041 3.16257 6.61939 3.03801 6.6751 2.92472C6.73082 2.81143 6.81177 2.71244 6.91175 2.63534C7.01172 2.55825 7.12805 2.50512 7.25178 2.48003C7.3755 2.45494 7.50334 2.45857 7.62544 2.49064L20.6224 5.91197V32.269L6.59038 28.5769V3.28881ZM2.46332 31.683V6.92062C2.46332 6.70171 2.55029 6.49176 2.70508 6.33697C2.85987 6.18217 3.06982 6.09521 3.28873 6.09521H4.93956V29.2067C4.93959 29.3891 5.00003 29.5663 5.11143 29.7107C5.22283 29.8551 5.37892 29.9586 5.55531 30.0049L15.069 32.5084H3.28873C3.07082 32.5084 2.86174 32.4222 2.70711 32.2687C2.55248 32.1151 2.46485 31.9067 2.46332 31.6887V31.683ZM40.4322 31.683C40.4322 31.9019 40.3453 32.1118 40.1905 32.2666C40.0357 32.4214 39.8257 32.5084 39.6068 32.5084H27.8266L37.3411 30.0049C37.5164 29.9587 37.6716 29.856 37.7827 29.7128C37.8938 29.5696 37.9547 29.3938 37.956 29.2125V6.10099H39.6068C39.8257 6.10099 40.0357 6.18795 40.1905 6.34275C40.3453 6.49754 40.4322 6.70749 40.4322 6.9264V31.683Z" fill="black"/>
<path d="M24.9588 26.3177L34.0384 23.9282C34.1432 23.9005 34.2416 23.8525 34.3279 23.7868C34.4142 23.7211 34.4868 23.6391 34.5414 23.5454C34.596 23.4517 34.6316 23.3482 34.6462 23.2407C34.6608 23.1333 34.6541 23.024 34.6265 22.9191C34.5988 22.8142 34.5508 22.7158 34.4851 22.6295C34.4195 22.5432 34.3374 22.4707 34.2437 22.4161C34.15 22.3614 34.0465 22.3258 33.939 22.3112C33.8316 22.2966 33.7223 22.3033 33.6174 22.331L24.5379 24.7206C24.3261 24.7762 24.145 24.9136 24.0346 25.1027C23.9241 25.2918 23.8933 25.517 23.9489 25.7288C24.0045 25.9406 24.142 26.1216 24.3311 26.2321C24.5202 26.3425 24.7454 26.3733 24.9572 26.3177H24.9588Z" fill="black"/>
<path d="M24.9588 19.2383L34.0384 16.8446C34.25 16.7888 34.4309 16.6511 34.5411 16.462C34.6513 16.2728 34.6819 16.0476 34.626 15.8359C34.5702 15.6242 34.4326 15.4434 34.2434 15.3332C34.0543 15.223 33.8291 15.1924 33.6174 15.2482L24.5379 17.6419C24.3261 17.6975 24.145 17.835 24.0346 18.0241C23.9241 18.2132 23.8933 18.4384 23.9489 18.6502C24.0045 18.862 24.142 19.043 24.3311 19.1534C24.5202 19.2639 24.7454 19.2947 24.9572 19.2391L24.9588 19.2383Z" fill="black"/>
<path d="M24.9584 12.1595L34.0379 9.76995C34.2497 9.71413 34.4306 9.57646 34.5409 9.38722C34.6512 9.19798 34.6818 8.97269 34.626 8.76089C34.5702 8.54909 34.4325 8.36814 34.2432 8.25785C34.054 8.14756 33.8287 8.11696 33.6169 8.17278L24.5374 10.5665C24.3295 10.6255 24.1531 10.7637 24.046 10.9514C23.9389 11.139 23.9097 11.3612 23.9646 11.5702C24.0195 11.7792 24.1541 11.9583 24.3396 12.0691C24.5251 12.1799 24.7467 12.2136 24.9567 12.1628L24.9584 12.1595Z" fill="black"/>
<path d="M8.85818 23.924L17.9377 26.3136C18.1495 26.3692 18.3747 26.3384 18.5638 26.228C18.7529 26.1175 18.8903 25.9365 18.9459 25.7247C19.0016 25.5129 18.9707 25.2877 18.8603 25.0986C18.7498 24.9095 18.5688 24.772 18.357 24.7164L9.27749 22.3269C9.06569 22.2713 8.84048 22.3021 8.6514 22.4125C8.46232 22.523 8.32486 22.704 8.26925 22.9158C8.21365 23.1276 8.24446 23.3528 8.3549 23.5419C8.46535 23.731 8.64638 23.8684 8.85818 23.924V23.924Z" fill="black"/>
<path d="M8.85771 16.8478L17.9372 19.2415C18.149 19.2971 18.3742 19.2663 18.5633 19.1558C18.7524 19.0454 18.8899 18.8643 18.9455 18.6525C19.0011 18.4407 18.9703 18.2155 18.8598 18.0265C18.7494 17.8374 18.5683 17.6999 18.3565 17.6443L9.27701 15.2506C9.06698 15.1999 8.84543 15.2335 8.65994 15.3443C8.47444 15.4551 8.33979 15.6343 8.2849 15.8433C8.23 16.0522 8.25924 16.2744 8.36634 16.4621C8.47344 16.6497 8.64985 16.7879 8.85771 16.847V16.8478Z" fill="black"/>
<path d="M8.85818 9.76987L17.9377 12.1594C18.0433 12.1894 18.1538 12.1981 18.2628 12.1848C18.3718 12.1716 18.477 12.1367 18.5724 12.0823C18.6677 12.0279 18.7512 11.955 18.8181 11.8679C18.8849 11.7808 18.9337 11.6813 18.9616 11.5751C18.9894 11.469 18.9959 11.3583 18.9805 11.2496C18.9651 11.1409 18.9281 11.0364 18.8718 10.9421C18.8155 10.8479 18.741 10.7658 18.6526 10.7007C18.5642 10.6357 18.4637 10.5889 18.357 10.5631L9.27749 8.1694C9.06569 8.11379 8.84048 8.1446 8.6514 8.25505C8.46232 8.3655 8.32486 8.54653 8.26925 8.75833C8.21365 8.97013 8.24446 9.19534 8.3549 9.38442C8.46535 9.5735 8.64638 9.71096 8.85818 9.76657V9.76987Z" fill="black"/>
</svg>
