<svg width="56" height="52" viewBox="0 0 56 52" fill="none" xmlns="http://www.w3.org/2000/svg">
<circle cx="35.4293" cy="31.7035" r="20.2965" fill="#BEBAFF"/>
<path d="M41.2171 2.5946e-05H36.0096C35.4162 -0.00269152 34.8417 0.208134 34.3909 0.593998C33.9401 0.979861 33.6431 1.51501 33.5542 2.10171L32.8501 6.62734H2.97411C2.6303 6.62779 2.29078 6.70366 1.97949 6.84961C1.6682 6.99556 1.39272 7.20803 1.17248 7.47203C0.95224 7.73603 0.792605 8.04514 0.704832 8.37755C0.61706 8.70997 0.603288 9.05759 0.664487 9.39591L3.7056 26.1299C3.81064 26.7018 4.11287 27.2187 4.5597 27.5907C5.00652 27.9628 5.56964 28.1664 6.15108 28.1661H32.5187C32.8483 28.1661 33.1643 28.297 33.3974 28.5301C33.6304 28.7631 33.7613 29.0792 33.7613 29.4088C33.7613 29.7383 33.6304 30.0544 33.3974 30.2874C33.1643 30.5205 32.8483 30.6514 32.5187 30.6514H4.7668C4.54709 30.6514 4.33638 30.7387 4.18102 30.894C4.02566 31.0494 3.93838 31.2601 3.93838 31.4798C3.93838 31.6995 4.02566 31.9102 4.18102 32.0656C4.33638 32.2209 4.54709 32.3082 4.7668 32.3082H8.10117C7.55354 33.0212 7.25522 33.8944 7.25204 34.7934C7.25204 35.892 7.68844 36.9455 8.46523 37.7223C9.24202 38.4991 10.2956 38.9355 11.3941 38.9355C12.4927 38.9355 13.5462 38.4991 14.323 37.7223C15.0998 36.9455 15.5362 35.892 15.5362 34.7934C15.5331 33.8942 15.2345 33.021 14.6862 32.3082H21.3558C20.8082 33.0212 20.5099 33.8944 20.5067 34.7934C20.5067 35.892 20.9431 36.9455 21.7199 37.7223C22.4967 38.4991 23.5502 38.9355 24.6488 38.9355C25.7473 38.9355 26.8009 38.4991 27.5776 37.7223C28.3544 36.9455 28.7908 35.892 28.7908 34.7934C28.7878 33.8942 28.4891 33.021 27.9409 32.3082H32.5187C32.8995 32.3082 33.2765 32.2332 33.6283 32.0875C33.98 31.9418 34.2997 31.7282 34.5689 31.459C34.8382 31.1897 35.0517 30.8701 35.1974 30.5183C35.3431 30.1665 35.4181 29.7895 35.4181 29.4088C35.4181 29.028 35.3431 28.651 35.1974 28.2992C35.0517 27.9474 34.8382 27.6278 34.5689 27.3585C34.2997 27.0893 33.98 26.8757 33.6283 26.73C33.2765 26.5843 32.8995 26.5093 32.5187 26.5093H31.4169L35.1912 2.35769C35.2206 2.16203 35.3195 1.98351 35.4698 1.85482C35.6201 1.72612 35.8118 1.65584 36.0096 1.65686H41.2171C41.4368 1.65686 41.6475 1.56958 41.8028 1.41422C41.9582 1.25886 42.0455 1.04815 42.0455 0.828441C42.0455 0.608731 41.9582 0.398021 41.8028 0.242663C41.6475 0.0873051 41.4368 2.5946e-05 41.2171 2.5946e-05ZM13.8794 34.7934C13.8794 35.285 13.7336 35.7655 13.4605 36.1742C13.1874 36.5829 12.7993 36.9014 12.3452 37.0895C11.8911 37.2776 11.3914 37.3268 10.9093 37.2309C10.4272 37.135 9.98435 36.8983 9.63678 36.5508C9.28922 36.2032 9.05252 35.7604 8.95663 35.2783C8.86073 34.7962 8.90995 34.2965 9.09805 33.8424C9.28615 33.3883 9.60469 33.0001 10.0134 32.727C10.4221 32.454 10.9026 32.3082 11.3941 32.3082C12.0532 32.3082 12.6854 32.57 13.1515 33.0361C13.6175 33.5022 13.8794 34.1343 13.8794 34.7934ZM27.134 34.7934C27.134 35.285 26.9882 35.7655 26.7152 36.1742C26.4421 36.5829 26.0539 36.9014 25.5998 37.0895C25.1457 37.2776 24.646 37.3268 24.1639 37.2309C23.6818 37.135 23.239 36.8983 22.8914 36.5508C22.5439 36.2032 22.3072 35.7604 22.2113 35.2783C22.1154 34.7962 22.1646 34.2965 22.3527 33.8424C22.5408 33.3883 22.8593 33.0001 23.268 32.727C23.6767 32.454 24.1572 32.3082 24.6488 32.3082C25.3079 32.3082 25.94 32.57 26.4061 33.0361C26.8722 33.5022 27.134 34.1343 27.134 34.7934V34.7934ZM29.7385 26.5093H6.15108C5.95707 26.5093 5.7692 26.4413 5.62023 26.317C5.47127 26.1927 5.37065 26.02 5.33592 25.8292L2.29398 9.09519C2.27674 8.99589 2.28138 8.89402 2.30758 8.7967C2.33378 8.69937 2.38091 8.60894 2.44567 8.53171C2.51043 8.45448 2.59127 8.39232 2.68255 8.34957C2.77382 8.30681 2.87332 8.2845 2.97411 8.28417H32.5875L29.7385 26.5093Z" fill="black"/>
</svg>
