<svg width="55" height="52" viewBox="0 0 55 52" fill="none" xmlns="http://www.w3.org/2000/svg">
<circle cx="34.5535" cy="31.6301" r="20.3699" fill="#ADFFE2"/>
<path d="M39.1835 15.1458L27.5709 10.7962C26.9508 7.49506 25.6068 4.37234 23.6355 1.65271C23.2624 1.14071 22.7735 0.724125 22.2088 0.436916C21.6441 0.149706 21.0196 0 20.386 0C19.7525 0 19.1279 0.149706 18.5632 0.436916C17.9985 0.724125 17.5096 1.14071 17.1365 1.65271C15.1653 4.37232 13.8216 7.49507 13.202 10.7962L1.58848 15.1458C1.12284 15.322 0.72166 15.6354 0.438017 16.0445C0.154374 16.4537 0.00163284 16.9393 0 17.4372V19.3559C6.81611e-05 19.7023 0.0737058 20.0448 0.21604 20.3606C0.358373 20.6764 0.566158 20.9584 0.82564 21.1879C1.08512 21.4174 1.39039 21.5891 1.72123 21.6918C2.05207 21.7945 2.40095 21.8257 2.74477 21.7835L13.427 20.4706L15.716 32.5677L11.0084 35.1314C10.5113 35.4059 10.1301 35.8508 9.9351 36.3841C9.74006 36.9174 9.74429 37.5033 9.94701 38.0337C10.1497 38.5642 10.5373 39.0035 11.0383 39.2708C11.5394 39.5381 12.1201 39.6153 12.6736 39.4883L16.8323 38.5098L16.8821 38.7764C16.9874 39.338 17.2859 39.8449 17.7259 40.2094C18.1659 40.5739 18.7195 40.7728 19.2909 40.7718H21.4811C22.0511 40.7719 22.6031 40.573 23.042 40.2094C23.4809 39.8459 23.7791 39.3405 23.8851 38.7805L23.9348 38.5139L28.0935 39.4924C28.6469 39.619 29.2274 39.5415 29.7282 39.2741C30.229 39.0067 30.6163 38.5674 30.8188 38.0371C31.0214 37.5068 31.0256 36.9212 30.8307 36.388C30.6357 35.8548 30.2547 35.41 29.7579 35.1355L25.0593 32.5685L27.3482 20.4674L38.0305 21.7802C38.3738 21.8219 38.722 21.7904 39.0523 21.6877C39.3825 21.585 39.6872 21.4134 39.9462 21.1843C40.2053 20.9553 40.4128 20.6738 40.5552 20.3587C40.6975 20.0435 40.7714 19.7017 40.772 19.3559V17.4372C40.7705 16.9393 40.6178 16.4536 40.3341 16.0444C40.0505 15.6353 39.6492 15.3219 39.1835 15.1458V15.1458ZM2.5458 20.1648C2.43122 20.1789 2.31495 20.1685 2.20469 20.1343C2.09443 20.1001 1.99269 20.0429 1.9062 19.9664C1.81971 19.8899 1.75044 19.796 1.70298 19.6907C1.65552 19.5855 1.63094 19.4714 1.63088 19.3559V17.4372C1.63146 17.2712 1.68236 17.1094 1.77684 16.973C1.87133 16.8366 2.00496 16.732 2.1601 16.6731L12.9296 12.6391C12.7093 14.7132 12.7765 16.8077 13.1294 18.8634L2.5458 20.1648ZM12.3034 37.9006C12.1333 37.94 11.9548 37.9166 11.8007 37.8345C11.6467 37.7525 11.5275 37.6175 11.4653 37.4545C11.403 37.2914 11.4019 37.1113 11.4622 36.9475C11.5224 36.7837 11.6399 36.6472 11.7929 36.5633L16.0332 34.2524L16.5363 36.9074L12.3034 37.9006ZM21.4811 39.1409H19.2909C19.1009 39.141 18.9168 39.0747 18.7704 38.9536C18.6241 38.8324 18.5246 38.6639 18.4893 38.4772L14.7913 18.927C14.2614 16.1008 14.313 13.1963 14.9431 10.3907C15.5732 7.58516 16.7684 4.93744 18.4559 2.60922C18.6776 2.30511 18.968 2.05769 19.3035 1.88711C19.639 1.71653 20.0101 1.62761 20.3864 1.62761C20.7628 1.62761 21.1338 1.71653 21.4693 1.88711C21.8048 2.05769 22.0952 2.30511 22.317 2.60922C24.004 4.93716 25.199 7.58448 25.8289 10.3896C26.4589 13.1947 26.5105 16.0988 25.9807 18.9245L22.2827 38.4747C22.2479 38.6619 22.1487 38.8309 22.0023 38.9526C21.8559 39.0743 21.6715 39.1409 21.4811 39.1409ZM28.9791 36.5658C29.131 36.6505 29.2473 36.7871 29.3067 36.9505C29.3661 37.114 29.3646 37.2933 29.3025 37.4558C29.2404 37.6182 29.1218 37.7529 28.9685 37.835C28.8152 37.9172 28.6375 37.9413 28.4678 37.9031L24.239 36.9099L24.7413 34.2548L28.9791 36.5658ZM39.1411 19.3559C39.1411 19.4714 39.1165 19.5855 39.069 19.6907C39.0216 19.796 38.9523 19.8899 38.8658 19.9664C38.7793 20.0429 38.6776 20.1001 38.5673 20.1343C38.4571 20.1685 38.3408 20.1789 38.2262 20.1648L27.6434 18.8634C27.9967 16.8078 28.064 14.7132 27.8432 12.6391L38.6127 16.6731C38.7679 16.732 38.9015 16.8366 38.996 16.973C39.0905 17.1094 39.1414 17.2712 39.1419 17.4372L39.1411 19.3559Z" fill="black"/>
<path d="M20.3858 33.4329C20.1695 33.4329 19.9621 33.5188 19.8091 33.6717C19.6562 33.8246 19.5703 34.032 19.5703 34.2483V35.8792C19.5703 36.0955 19.6562 36.3029 19.8091 36.4558C19.9621 36.6087 20.1695 36.6946 20.3858 36.6946C20.602 36.6946 20.8094 36.6087 20.9624 36.4558C21.1153 36.3029 21.2012 36.0955 21.2012 35.8792V34.2483C21.2012 34.032 21.1153 33.8246 20.9624 33.6717C20.8094 33.5188 20.602 33.4329 20.3858 33.4329Z" fill="black"/>
<path d="M17.363 7.57527C17.2243 7.73081 17.1505 7.93354 17.1566 8.14183C17.1627 8.35011 17.2484 8.54815 17.3959 8.69529C17.5435 8.84242 17.7417 8.92749 17.95 8.93302C18.1583 8.93855 18.3609 8.86413 18.516 8.72503C19.0126 8.23037 19.6849 7.95263 20.3858 7.95263C21.0867 7.95263 21.7591 8.23037 22.2556 8.72503C22.4094 8.87357 22.6154 8.95576 22.8292 8.95391C23.043 8.95205 23.2475 8.86629 23.3987 8.7151C23.5499 8.56391 23.6357 8.35939 23.6375 8.14558C23.6394 7.93178 23.5572 7.7258 23.4086 7.572C22.6058 6.77203 21.5185 6.32312 20.3851 6.32373C19.2518 6.32434 18.1649 6.77443 17.363 7.57527V7.57527Z" fill="black"/>
</svg>
